<?xml version="1.0" encoding="UTF-8" standalone="no"?>
<!-- Generator: Adobe Illustrator 25.0.1, SVG Export Plug-In . SVG Version: 6.00 Build 0)  -->

<svg
   version="1.1"
   id="svg2"
   inkscape:export-filename="promo-jira.png"
   inkscape:export-xdpi="96"
   inkscape:export-ydpi="96"
   inkscape:version="1.2 (dc2aedaf03, 2022-05-15)"
   sodipodi:docname="author-banner-jira.svg"
   x="0px"
   y="0px"
   viewBox="0 0 1190 265"
   style="enable-background:new 0 0 1190 265;"
   xml:space="preserve"
   xmlns:inkscape="http://www.inkscape.org/namespaces/inkscape"
   xmlns:sodipodi="http://sodipodi.sourceforge.net/DTD/sodipodi-0.dtd"
   xmlns="http://www.w3.org/2000/svg"
   xmlns:svg="http://www.w3.org/2000/svg"><defs
   id="defs107" />
<style
   type="text/css"
   id="style2">
	.st0{opacity:0.4;}
	.st1{fill:none;stroke:#000000;stroke-width:1.8417;stroke-miterlimit:2.5154;}
	.st2{enable-background:new    ;}
	.st3{fill:#626363;}
	.st4{fill:#949494;}
	.st5{fill:#A77660;}
	.st6{fill:#93BBD3;}
	.st7{fill:#669EC0;}
	.st8{fill:#846558;}
	.st9{fill:#231F20;}
	.st10{fill:#FFFFFF;}
	.st11{fill:#7FB860;}
	.st12{fill:#D1D3D4;}
	.st13{fill:#614A41;}
	.st14{fill:#191D2A;stroke:#191D2A;stroke-width:0.9928;stroke-miterlimit:4.7373;}
</style>
<sodipodi:namedview
   bordercolor="#666666"
   borderopacity="1.0"
   id="base"
   inkscape:current-layer="svg2"
   inkscape:cx="702.54702"
   inkscape:cy="241.18937"
   inkscape:document-rotation="0"
   inkscape:document-units="px"
   inkscape:guide-bbox="true"
   inkscape:lockguides="false"
   inkscape:object-nodes="true"
   inkscape:object-paths="false"
   inkscape:pageopacity="1"
   inkscape:pageshadow="2"
   inkscape:snap-intersection-paths="false"
   inkscape:snap-nodes="true"
   inkscape:snap-smooth-nodes="true"
   inkscape:window-height="995"
   inkscape:window-maximized="1"
   inkscape:window-width="1920"
   inkscape:window-x="0"
   inkscape:window-y="0"
   inkscape:zoom="0.45192705"
   pagecolor="#ffffff"
   showgrid="false"
   showguides="true"
   inkscape:showpageshadow="2"
   inkscape:pagecheckerboard="0"
   inkscape:deskcolor="#d1d1d1">
	</sodipodi:namedview>
<g
   id="layer1"
   transform="translate(0,-610.51969)"
   inkscape:groupmode="layer"
   inkscape:label="Livello 1">
</g>
<g
   id="g2036"
   transform="matrix(1.1,0,0,0.44444,101.4198,239.35202)">
	<g
   id="g3712"
   transform="matrix(1.0526,0,0,1.2857,-1.3474133,-14.324267)"
   class="st0">
	</g>
</g>
<g
   id="g3541"
   transform="translate(103.9798,212.56695)">
</g>
<g
   id="g3536"
   transform="translate(103.9798,212.56695)">
</g>
<g
   id="g4076"
   transform="translate(-645.88727,-411.69958)">
	<g
   id="g4038"
   transform="translate(-988.44542,730.01011)">
	</g>
</g>
<g
   id="text3839"
   transform="matrix(1.3566899,-0.00504995,0.00550305,1.2449875,1041.1846,-229.00677)">
</g>


<path
   id="path4624"
   inkscape:connector-curvature="0"
   class="st1"
   d="M 821.24727,76.020429 792.15672,188.97957" /><g
   id="g842"><g
     class="st2"
     id="g40"
     transform="matrix(0.61281395,0,0,0.61281395,191.49577,51.332792)">
	<path
   class="st3"
   d="M 566.9,118.8 V 90 h 1.9 v 27 H 582 v 1.8 z"
   id="path14" />
	<path
   class="st3"
   d="m 605.2,116.1 c -1.8,2.1 -4.5,3.1 -8.1,3.1 -3.6,0 -6.3,-1 -8.1,-3.1 -1.8,-2.1 -2.7,-4.9 -2.7,-8.6 V 92.7 h 1.9 v 14.9 c 0,6.7 3,10 8.9,10 5.9,0 8.9,-3.3 8.9,-10 V 92.7 h 1.9 v 14.9 c 0,3.6 -0.9,6.4 -2.7,8.5 z"
   id="path16" />
	<path
   class="st3"
   d="M 617.3,118.8 V 92.7 h 1.9 v 26.1 z"
   id="path18" />
	<path
   class="st3"
   d="m 634.1,93.8 c -1.4,0 -2.6,0.3 -3.5,1 -0.9,0.7 -1.4,1.7 -1.4,2.9 0,1.4 0.6,2.8 1.8,3.9 0.9,0.8 2,1.7 3.3,2.6 1.4,0.9 2.3,1.6 2.8,2 0.5,0.4 1.1,1 1.9,1.7 1.3,1.3 2,2.8 2,4.5 0,2.2 -0.7,3.9 -2.2,5.1 -1.5,1.1 -3.6,1.7 -6.2,1.7 -2.6,0 -4.9,-0.7 -6.7,-2.1 l 1,-1.4 c 1.8,1.2 3.8,1.9 5.8,1.9 2,0 3.6,-0.4 4.8,-1.3 1.1,-0.9 1.7,-2.1 1.7,-3.6 0,-1.3 -0.6,-2.6 -1.7,-3.7 -0.8,-0.8 -1.9,-1.7 -3.2,-2.6 -1.4,-0.9 -2.3,-1.6 -2.8,-2 -0.5,-0.4 -1.2,-1 -1.9,-1.7 -1.4,-1.4 -2.1,-3 -2.1,-4.7 0,-1.8 0.6,-3.2 1.9,-4.2 1.3,-1 3,-1.5 5.3,-1.5 2.3,0 4.3,0.4 6.1,1.3 l -0.7,1.5 c -2,-0.9 -3.9,-1.3 -6,-1.3 z"
   id="path20" />
	<path
   class="st3"
   d="m 664.8,108.8 -4.1,10 h -2.1 l 12.1,-29 h 1.1 l 12.2,29 h -2.2 l -4.1,-10 z M 671.2,93 c 0,0 -0.1,0.2 -0.2,0.5 -0.4,1.2 -0.7,2.1 -1.1,2.9 l -4.4,10.7 H 677 l -4.4,-10.7 c -1,-2 -1.4,-3.1 -1.4,-3.4 z"
   id="path22" />
	<path
   class="st3"
   d="M 689.5,118.8 V 92.7 h 1.9 v 24.4 h 12 v 1.7 z"
   id="path24" />
	<path
   class="st3"
   d="M 708.8,118.8 V 92.7 H 721 v 1.6 h -10.3 v 9.5 h 9.3 v 1.6 h -9.3 v 11.8 h 10.7 v 1.7 h -12.6 z"
   id="path26" />
	<path
   class="st3"
   d="M 728.8,115.8 V 92.7 h 1.8 v 22 c 0,2.2 -0.3,4.1 -1,5.8 -0.7,1.7 -1.4,3 -2.3,3.9 -0.9,0.9 -2,1.9 -3.4,2.9 l -0.8,-1.2 c 3.8,-3 5.7,-6.4 5.7,-10.3 z"
   id="path28" />
	<path
   class="st3"
   d="m 741.6,109.7 -3.7,9.1 H 736 l 10.9,-26.3 h 1.1 l 11,26.3 h -2.1 l -3.8,-9.1 z m 5.7,-14.2 c -0.4,1.2 -0.8,2.2 -1.1,3 l -4,9.7 h 10.3 l -4,-9.6 c -0.6,-1.6 -1,-2.6 -1.2,-3.1 z"
   id="path30" />
	<path
   class="st3"
   d="M 764.3,118.8 V 92.5 h 0.9 l 17.1,19.7 c 0.6,0.7 1.2,1.4 1.7,2.1 0.5,0.7 0.8,1 0.8,1.1 -0.1,-0.6 -0.1,-1.9 -0.1,-3.8 V 92.7 h 1.9 V 119 h -0.9 L 768.2,99 766,96.3 c 0.1,0.5 0.1,1.8 0.1,3.8 v 18.8 h -1.8 z"
   id="path32" />
	<path
   class="st3"
   d="m 803.9,92.4 c 4,0 7.4,1.2 10.1,3.7 2.7,2.5 4,5.9 4,10.1 0,4.2 -1.2,7.5 -3.7,9.6 -2.5,2.1 -5.7,3.2 -9.6,3.2 -2.7,0 -5.5,-0.1 -8.4,-0.4 v -26 c 2.1,-0.1 4.7,-0.2 7.6,-0.2 z m 0.8,25 c 3.4,0 6.2,-0.9 8.3,-2.8 2.1,-1.9 3.1,-4.6 3.1,-8.4 0,-3.8 -1.2,-6.7 -3.5,-8.9 -2.3,-2.2 -5.2,-3.3 -8.7,-3.3 -2.4,0 -4.3,0.1 -5.6,0.2 v 22.9 c 1.5,0.2 3.7,0.3 6.4,0.3 z"
   id="path34" />
	<path
   class="st3"
   d="m 826,118.8 v -26 c 2.3,-0.2 4.3,-0.3 5.9,-0.3 2.5,0 4.5,0.6 6.1,1.9 1.6,1.3 2.4,3.1 2.4,5.5 0,1.6 -0.5,3 -1.4,4.4 -0.9,1.3 -1.9,2.4 -3.1,3.3 3.2,4.2 5.2,6.8 5.9,7.6 1.5,1.6 3.2,2.5 5,2.7 v 1.2 c -1.5,0 -2.7,-0.2 -3.7,-0.7 -0.9,-0.4 -1.9,-1.1 -2.8,-2.1 -0.9,-1 -3,-3.7 -6.1,-8 -2.2,0 -4.3,-0.1 -6.4,-0.2 v 10.7 z m 7.3,-12.1 c 1,0 2.2,-0.7 3.4,-2.1 1.2,-1.4 1.8,-3 1.8,-4.9 0,-1.9 -0.6,-3.3 -1.9,-4.2 -1.3,-1 -2.9,-1.4 -4.9,-1.4 -1.1,0 -2.3,0.1 -3.8,0.2 v 12.3 c 1.9,0.1 3.7,0.1 5.4,0.1 z"
   id="path36" />
	<path
   class="st3"
   d="m 861.1,119.2 c -3.7,0 -6.9,-1.3 -9.4,-3.9 -2.5,-2.6 -3.8,-5.8 -3.8,-9.6 0,-3.8 1.3,-7 3.8,-9.6 2.5,-2.6 5.6,-3.9 9.4,-3.9 3.7,0 6.9,1.3 9.4,3.9 2.5,2.6 3.8,5.8 3.8,9.6 0,3.8 -1.3,7 -3.8,9.6 -2.6,2.6 -5.7,3.9 -9.4,3.9 z m 0,-25.3 c -3.2,0 -5.9,1.1 -8,3.4 -2.1,2.3 -3.2,5.1 -3.2,8.4 0,3.3 1.1,6.1 3.2,8.4 2.1,2.3 4.8,3.4 8,3.4 3.2,0 5.9,-1.1 8,-3.4 2.1,-2.3 3.2,-5.1 3.2,-8.4 0,-3.3 -1.1,-6.1 -3.2,-8.4 -2.1,-2.3 -4.8,-3.4 -8,-3.4 z"
   id="path38" />
</g><g
     class="st2"
     id="g78"
     transform="matrix(0.61281395,0,0,0.61281395,81.49577,51.332792)">
	<path
   class="st4"
   d="m 582.6,174.6 v -28.8 h 14.7 v 1.7 h -12.8 v 10.6 h 11.7 v 1.6 h -11.7 v 14.9 z"
   id="path42" />
	<path
   class="st4"
   d="m 622.9,171.9 c -1.8,2.1 -4.5,3.1 -8.1,3.1 -3.6,0 -6.3,-1 -8.1,-3.1 -1.8,-2.1 -2.7,-4.9 -2.7,-8.6 v -14.9 h 1.9 v 14.9 c 0,6.7 3,10 8.9,10 5.9,0 8.9,-3.3 8.9,-10 v -14.9 h 1.9 v 14.9 c 0,3.7 -0.9,6.5 -2.7,8.6 z"
   id="path44" />
	<path
   class="st4"
   d="m 635,174.6 v -26.1 h 1.9 v 24.4 h 12 v 1.7 z"
   id="path46" />
	<path
   class="st4"
   d="m 654.3,174.6 v -26.1 h 1.9 v 24.4 h 12 v 1.7 z"
   id="path48" />
	<path
   class="st4"
   d="m 701.1,148.4 c -2,-0.8 -3.9,-1.2 -5.8,-1.2 -3.9,0 -5.9,1.4 -5.9,4.3 0,1.3 0.4,2.4 1.3,3.5 0.9,1.1 2,2.1 3.2,2.9 1.3,0.8 2.5,1.7 3.8,2.6 1.3,0.9 2.3,1.9 3.2,3.2 0.9,1.3 1.3,2.6 1.3,4 0,2.4 -0.8,4.3 -2.5,5.5 -1.7,1.2 -3.9,1.9 -6.8,1.9 -2.9,0 -5.3,-0.7 -7.4,-2.2 l 1,-1.4 c 1.9,1.3 4.1,1.9 6.4,1.9 2.3,0 4.1,-0.5 5.3,-1.4 1.2,-0.9 1.9,-2.3 1.9,-4 0,-1.2 -0.4,-2.4 -1.3,-3.4 -0.9,-1.1 -2,-2.1 -3.2,-2.9 -1.3,-0.9 -2.5,-1.8 -3.8,-2.7 -1.3,-0.9 -2.3,-2 -3.2,-3.3 -0.9,-1.3 -1.3,-2.6 -1.3,-4.1 0,-1.9 0.7,-3.4 2.1,-4.5 1.4,-1.1 3.3,-1.7 5.7,-1.7 2.4,0 4.6,0.5 6.7,1.4 z"
   id="path50" />
	<path
   class="st4"
   d="M 713.9,150.1 H 705 v -1.6 h 19.5 v 1.6 h -8.9 v 24.5 h -1.8 v -24.5 z"
   id="path52" />
	<path
   class="st4"
   d="m 728.8,165.5 -3.7,9.1 h -1.9 l 10.9,-26.3 h 1.1 l 11,26.3 h -2.1 l -3.8,-9.1 z m 5.8,-14.2 c -0.4,1.2 -0.8,2.2 -1.1,3 l -4,9.7 h 10.3 l -4,-9.6 c -0.7,-1.5 -1.1,-2.6 -1.2,-3.1 z"
   id="path54" />
	<path
   class="st4"
   d="m 771.4,173.3 c -2,1.1 -4.8,1.7 -8.4,1.7 -3.6,0 -6.7,-1.3 -9.5,-3.9 -2.7,-2.6 -4.1,-5.8 -4.1,-9.6 0,-3.8 1.2,-7 3.6,-9.6 2.4,-2.6 5.4,-3.9 9.2,-3.9 3,0 6,0.5 8.9,1.4 l -0.5,1.5 c -2.8,-0.9 -5.7,-1.3 -8.7,-1.3 -3,0 -5.5,1.1 -7.5,3.4 -2,2.3 -3,5 -3,8.3 0,3.3 1.2,6.1 3.5,8.4 2.3,2.3 5.1,3.5 8.2,3.5 3.1,0 5.6,-0.4 7.7,-1.3 z"
   id="path56" />
	<path
   class="st4"
   d="m 779.8,148.5 v 26.1 H 778 v -26.1 z m 14,0 -11.1,12.6 c 4.4,5.3 7.4,8.7 9,10.1 1.6,1.4 3.2,2.2 4.8,2.4 v 1.2 c -1.5,0 -2.7,-0.2 -3.7,-0.7 -0.9,-0.4 -1.8,-1 -2.5,-1.7 -0.7,-0.7 -2.3,-2.4 -4.6,-5.1 -2.4,-2.7 -4.2,-4.8 -5.3,-6.3 l 11.2,-12.7 h 2.2 z"
   id="path58" />
	<path
   class="st4"
   d="m 824,145.5 c 4.4,0 8.1,1.4 11.1,4.1 3,2.8 4.5,6.5 4.5,11.2 0,2.4 -0.4,4.5 -1.1,6.3 -0.7,1.8 -1.8,3.3 -3.2,4.4 -2.8,2.2 -6.2,3.3 -10.3,3.3 -2.7,0 -5.8,-0.1 -9.2,-0.4 v -28.7 c 2.7,-0.1 5.4,-0.2 8.2,-0.2 z m 0.9,27.7 c 3.8,0 6.8,-1 9.1,-3.1 2.3,-2.1 3.4,-5.1 3.4,-9.3 0,-4.1 -1.3,-7.4 -3.9,-9.9 -2.6,-2.4 -5.8,-3.7 -9.6,-3.7 -2.4,0 -4.6,0.1 -6.4,0.2 v 25.4 c 1.9,0.3 4.3,0.4 7.4,0.4 z"
   id="path60" />
	<path
   class="st4"
   d="m 848,174.6 v -26.1 h 12.2 v 1.6 h -10.3 v 9.5 h 9.3 v 1.6 h -9.3 V 173 h 10.7 v 1.7 H 848 Z"
   id="path62" />
	<path
   class="st4"
   d="m 876.6,169.1 8.7,-20.6 h 1.9 L 876,174.8 h -1.1 l -11.2,-26.3 h 2 l 9.9,23.2 c 0.1,-0.4 0.4,-1.3 1,-2.6 z"
   id="path64" />
	<path
   class="st4"
   d="m 892.6,174.6 v -26.1 h 12.2 v 1.6 h -10.3 v 9.5 h 9.3 v 1.6 h -9.3 V 173 h 10.7 v 1.7 h -12.6 z"
   id="path66" />
	<path
   class="st4"
   d="m 912.6,174.6 v -26.1 h 1.9 v 24.4 h 12 v 1.7 z"
   id="path68" />
	<path
   class="st4"
   d="m 941.8,175 c -3.7,0 -6.9,-1.3 -9.4,-3.9 -2.5,-2.6 -3.8,-5.8 -3.8,-9.6 0,-3.8 1.3,-7 3.8,-9.6 2.5,-2.6 5.6,-3.9 9.4,-3.9 3.7,0 6.9,1.3 9.4,3.9 2.5,2.6 3.8,5.8 3.8,9.6 0,3.8 -1.3,7 -3.8,9.6 -2.5,2.6 -5.7,3.9 -9.4,3.9 z m 0,-25.3 c -3.2,0 -5.9,1.1 -8,3.4 -2.1,2.3 -3.2,5.1 -3.2,8.4 0,3.3 1.1,6.1 3.2,8.4 2.1,2.3 4.8,3.4 8,3.4 3.2,0 5.9,-1.1 8,-3.4 2.1,-2.3 3.2,-5.1 3.2,-8.4 0,-3.3 -1.1,-6.1 -3.2,-8.4 -2,-2.2 -4.7,-3.4 -8,-3.4 z"
   id="path70" />
	<path
   class="st4"
   d="m 963,174.6 v -26 c 2,-0.2 4.1,-0.3 6.4,-0.3 2.2,0 4.1,0.6 5.7,1.8 1.6,1.2 2.3,3 2.3,5.4 0,2.4 -1.1,4.4 -3.2,5.9 -2.1,1.5 -4.6,2.3 -7.5,2.3 -0.1,0 -0.3,0 -0.4,0 v -1.3 c 0.1,0 0.2,0 0.3,0 2.4,0 4.5,-0.6 6.2,-1.9 1.8,-1.3 2.7,-2.9 2.7,-4.9 0,-2 -0.6,-3.5 -1.9,-4.4 -1.2,-0.9 -2.9,-1.4 -4.9,-1.4 -1.1,0 -2.3,0.1 -3.8,0.2 v 24.5 H 963 Z"
   id="path72" />
	<path
   class="st4"
   d="m 984.3,174.6 v -26.1 h 12.2 v 1.6 h -10.3 v 9.5 h 9.3 v 1.6 h -9.3 V 173 h 10.7 v 1.7 h -12.6 z"
   id="path74" />
	<path
   class="st4"
   d="m 1004.3,174.6 v -26 c 2.3,-0.2 4.3,-0.3 5.9,-0.3 2.5,0 4.5,0.6 6.1,1.9 1.6,1.3 2.4,3.1 2.4,5.5 0,1.6 -0.5,3 -1.4,4.4 -0.9,1.4 -1.9,2.4 -3.1,3.3 3.2,4.2 5.2,6.8 5.9,7.6 1.5,1.6 3.2,2.5 5,2.7 v 1.2 c -1.5,0 -2.7,-0.2 -3.7,-0.7 -0.9,-0.4 -1.9,-1.1 -2.8,-2.1 -0.9,-1 -3,-3.7 -6.1,-8 -2.2,0 -4.3,-0.1 -6.4,-0.2 v 10.7 z m 7.2,-12 c 1,0 2.2,-0.7 3.4,-2.1 1.2,-1.4 1.8,-3 1.8,-4.9 0,-1.9 -0.6,-3.3 -1.9,-4.2 -1.3,-1 -2.9,-1.4 -4.9,-1.4 -1.1,0 -2.3,0.1 -3.8,0.2 v 12.3 c 2,0 3.8,0.1 5.4,0.1 z"
   id="path76" />
</g></g>

















<g
   id="g293"
   transform="matrix(0.90987054,0,0,0.90987054,712.85801,27.931121)"><path
     id="path118-3"
     inkscape:connector-curvature="0"
     sodipodi:nodetypes="sscccccccscccccccccscccccccss"
     class="st5"
     d="m 271.5,19.7 c -13.3,0 -24.1,14 -24.1,19.3 0,2.9 -0.3,11.4 -0.4,19.4 -0.1,-0.5 -0.8,-2.8 -1.5,-3.5 -0.8,-0.8 -1.9,0.7 -1.9,0.7 0,0 -0.6,6.6 -0.3,9.1 0.3,2.5 2.9,8.9 2.9,8.9 h 1.1 v -1.1 c 0.1,0.7 0.1,1.5 0.2,2.1 0.7,4.1 3.2,11.6 5.7,18.1 l 0.2,18.3 6,6.9 5.7,42.8 6.5,12.6 8.9,-37.1 1.9,-18.4 5.6,-7.6 0.3,-14.5 c 2.8,-7.2 5.4,-16.5 6.3,-20.9 0.2,-0.7 0.3,-1.7 0.4,-2.9 v 1.7 h 1.1 c 0,0 2.6,-6.4 2.9,-8.9 0.3,-2.5 -0.3,-9.1 -0.3,-9.1 0,0 -1.1,-1.5 -1.9,-0.7 -0.5,0.5 -1,1.9 -1.3,2.8 0.1,-7.8 0.1,-15.8 0.2,-18.8 0.2,-5.7 -10.8,-19.2 -24.2,-19.2 z" /><path
     id="path88"
     inkscape:connector-curvature="0"
     sodipodi:nodetypes="cczcccscsccccsccczcccccccccc"
     class="st6"
     d="m 246,109.3 -42.8,13.9 c -9.9,12 -43.4,66 -37.7,85.8 5.7,19.7 5.2,3.7 5.2,3.7 l 21.1,-3.4 c 0,0 -3.6,6.4 -0.3,-5.7 3.2,2 9.9,-7.7 14.1,-14.5 5.4,-9 8.5,-18.5 9.1,-18.4 0,-5.8 -3,6.1 2.8,26.9 6.8,24.5 2.9,75.1 2.6,87.7 0,0 11,24.4 50.7,24.5 v 0.1 c 39.9,0 51.8,-25.1 51.8,-25.1 -1.9,-15.5 -9.2,-60.9 -3.5,-84.6 0.4,-1.6 0,0 2.2,-6.8 -3.1,1.4 2,17.1 2,17.1 l 28.7,0.8 c 0,0 1.7,-20.8 0.1,-35.7 -1.7,-14.9 -3.8,-39.6 -12.8,-52.3 -0.3,0.1 -0.7,0.3 -1,0.5 l 0.2,-0.4 -43.4,-13.6 -12.7,4.5 -4.9,24.7 -5.1,30.7 -9.8,-29 -3.1,-26.8 z" /><path
     id="polygon104"
     inkscape:connector-curvature="0"
     class="st7"
     d="m 315.6,194.2 -14.9,7.2 -14.9,-7.2 v -23.9 h 29.8 z" /><path
     id="rect108"
     inkscape:connector-curvature="0"
     sodipodi:nodetypes="ccccccccccccccccc"
     class="st7"
     d="m 282.3,113.5 -2.6,19.2 -4.4,17.8 v 0.1 c -0.4,1.4 -0.9,3.3 -1.6,6.4 l -5.3,24.9 v 0 0.1 l -0.5,127.8 4,-0.1 -0.5,-130.4 c 3.1,-14.9 4.3,-19.4 4.7,-21.3 v 0.1 l 0.1,-0.3 c 0,-0.1 0.1,-0.3 0.1,-0.5 l 5.8,-33.3 z" /><path
     id="rect108-9"
     inkscape:connector-curvature="0"
     sodipodi:nodetypes="ccccccccc"
     class="st7"
     d="m 261.4,131.3 3.3,19.3 v 0.1 c 0.4,1.4 0.9,3.3 1.6,6.4 l 6.9,16 c 0,0 -1.7,-3.6 -8.5,-15 -2.1,-11.7 -4.6,-24 -5.3,-34.1 l -0.1,-10.6 c 1.9,10.4 1.6,10.1 2.1,17.9 z" /><path
     id="polygon104-1"
     inkscape:connector-curvature="0"
     sodipodi:nodetypes="czsccccc"
     class="st7"
     d="m 168.8,220.3 c 0,0 -2.4,-3.2 -0.5,-10.5 2,-7.3 9.6,-12.2 19.5,-8.4 4.9,1.9 10.5,2.1 7,10.4 0,2.9 -1.3,5.3 -1.3,5.3 -2.4,-4 -6.1,-8.9 -15.7,-3.2 -3.6,2.1 -5.2,10 -5.2,10 z" /><path
     id="polygon104-1-2"
     inkscape:connector-curvature="0"
     sodipodi:nodetypes="czsccccc"
     class="st7"
     d="m 321.8,213.8 c 0,0 -1.5,-3.7 3.2,-9.6 4.6,-5.9 14.5,-7.7 23.7,-0.9 4.6,3.4 10.4,5.4 3.9,11.7 -1,2.6 -3.2,4.4 -3.2,4.4 -1.1,-4.5 -3.4,-10.1 -15.6,-8.2 -4.5,0.7 -9.1,7.2 -9.1,7.2 z" /><path
     id="path124"
     inkscape:connector-curvature="0"
     sodipodi:nodetypes="cccczzc"
     class="st8"
     d="m 295.7,57.9 c 0,6.7 -2.4,33.3 -8.8,32.9 -6.4,17 -23.6,17.2 -29.8,-0.3 -7,-0.9 -10,-25.4 -10,-32.1 -1.9,18.2 4.9,37.1 13.9,44 9,6.9 12.2,7.1 22,0 9.6,-7 13.1,-27.1 12.7,-44.5 z" /><path
     id="path126"
     inkscape:connector-curvature="0"
     sodipodi:nodetypes="czccccccczzccccczcccc"
     class="st9"
     d="m 251.9,14 c 1.7,0 17.2,-1.4 22.5,0.9 5.3,2.3 4.5,2.6 7.7,5.1 -0.5,-1.5 -0.1,-0.2 -1.1,-1.7 3.7,1.7 9,4.2 10.2,10.4 3.1,2.6 4.2,4 6.2,9 L 296.2,58.3 293.3,44 c 0,0 -3.5,-3 -4.2,-6.1 -3,0.2 -11,-3.1 -13.5,-1.8 -2.5,1.3 -3.8,2.4 -7.3,0.9 -3.6,-1.5 -4.3,-1.1 -8.2,0.8 -2.7,0.7 -9.4,4.1 -9.4,4.1 l -3.8,16.2 -1,-21.1 -4.8,-5 c 0,0 0.7,-1.7 3.3,-3.4 2.6,-1.7 4.2,-2.1 4.2,-2.1 -2.8,-1.4 -3,-2.3 -5.7,-3.6 4.3,-4.8 8.9,-5.4 11.1,-5.3 -1.4,-0.8 -1.6,-1.9 -2.1,-3.6 z" /><g
     id="g4658"
     transform="matrix(4.4868924,0,0,5.829977,263.08594,-228.14786)">
	<path
   id="path124-3-6"
   inkscape:connector-curvature="0"
   sodipodi:nodetypes="ccccc"
   class="st8"
   d="m 1.4,52.9 h 0.4 l -0.1,0.9 c -0.9,0 -1.8,0 -2.2,0.1 0.2,-0.9 1.6,-0.4 1.9,-1 z" />
	<path
   id="path124-3-6-5"
   inkscape:connector-curvature="0"
   sodipodi:nodetypes="ccccc"
   class="st8"
   d="M 2.6,52.9 H 2.1 l 0.1,0.9 c 0.9,0 1.8,0 2.2,0.1 C 4.3,53 2.9,53.5 2.6,52.9 Z" />
</g><path
     id="path138"
     inkscape:connector-curvature="0"
     sodipodi:nodetypes="cccccccccccccccccccccccccccccccccccccc"
     class="st5"
     d="m 173.2,218.2 -0.1,0.2 c -0.7,2.3 -0.7,4.8 0.1,7.2 0.3,1 0.9,2 1.3,3 l 1.3,2.9 2.7,5.9 5.3,11.7 2.7,5.9 1.3,2.9 0.7,1.5 0.3,0.7 c 0.1,0.1 0.1,0.2 0.2,0.4 l 0.1,0.4 2.3,6.5 c 0.4,1.4 0.9,2.8 1.4,4 l 0.6,1.6 v 0.1 c 0.3,0.8 0.7,1.5 1.3,2.2 7.2,12.4 18.7,11.4 27,10.8 0,0 3.1,-2.2 2.2,-4.8 0,0 -5.4,-2.5 -10.6,-10.3 l -0.5,-1.4 c -0.1,-0.6 0,-1.1 0.1,-1.7 l 3.6,5.3 c 1.1,1.7 3.4,2.1 5,1 1.6,-1.1 2.1,-3.4 0.9,-5 l -7.5,-11 c -0.8,-1.2 -2.3,-1.7 -3.6,-1.5 v -0.1 l -6.7,2 -0.8,-2.5 c -0.3,-1 -0.6,-2.1 -0.9,-3.1 l -0.9,-3.1 -1.7,-6.2 -3.4,-12.4 -1.7,-6.2 -0.6,-2.1 c -0.7,-5.1 -4.2,-23.9 -21.4,-4.8 z" /><g
     id="g4889"
     transform="matrix(6.592358,0,0,6.592358,68.668735,-296.87142)">
	<g
   id="g156">
		<path
   id="path158"
   inkscape:connector-curvature="0"
   class="st10"
   d="m 31.8,77.7 0.3,5.8 c 0,0.2 -0.5,0.4 -1.2,0.5 -0.7,0.1 -1.3,0 -1.3,-0.2 l -1.5,-5.6 z" />
		<path
   id="path160"
   inkscape:connector-curvature="0"
   class="st11"
   d="m 29,81 c -0.1,-0.8 0.4,-1.5 1.2,-1.7 0.8,-0.1 1.5,0.4 1.7,1.2 C 32,81.3 31.5,82 30.7,82.2 29.8,82.3 29.1,81.8 29,81 Z" />
		<polygon
   id="polygon162"
   class="st12"
   points="28.2,78.5 31.8,77.8 31.8,77.7 28.1,78.2 " />
		<path
   id="path164"
   inkscape:connector-curvature="0"
   class="st10"
   d="m 27.9,78.1 -0.1,-0.3 0.3,-0.1 v -0.4 c 0,-0.1 0.7,-0.3 1.7,-0.4 0.9,-0.1 1.7,-0.2 1.7,-0.1 l 0.1,0.4 0.3,-0.1 0.1,0.3 0.1,0.1 z" />
	</g>
	
		<path
   id="path154"
   inkscape:connector-curvature="0"
   sodipodi:nodetypes="ccccccccccccccccccccccccccccccccccccccc"
   class="st5"
   d="m 38.7,78.5 -6,2.4 c -0.1,-0.3 -0.2,-0.5 -0.2,-0.8 v 0 c 0,-0.1 0,-0.1 -0.1,-0.2 v 0 0 c -0.1,-0.1 -0.2,-0.2 -0.3,-0.2 -0.3,-0.1 -0.6,0.1 -0.6,0.3 v 0.1 c -0.9,0.2 -1.3,0.1 -1.8,0.1 0,0 0,0 0,0 L 28.3,80 c -0.2,0 -0.4,0.1 -0.4,0.3 0,0.2 0.1,0.4 0.3,0.4 l 1.2,0.2 c 0,0.1 0,0.1 0,0.2 L 28.6,81 c -0.2,0 -0.4,0.1 -0.4,0.3 0,0.2 0.1,0.4 0.3,0.4 h 0.1 c -0.1,0.1 -0.2,0.2 -0.2,0.3 0,0.2 0.1,0.4 0.3,0.4 l 0.7,0.1 c 0,0.1 0.1,0.1 0.1,0.2 L 29.1,83 c -0.2,0.1 -0.3,0.3 -0.3,0.5 0,0.2 0.3,0.3 0.5,0.3 l 0.6,-0.1 c 0.2,0.1 0.4,0.1 0.7,0 l 0.9,-0.2 c 0.5,0 1.1,-0.1 1.6,-0.3 0.8,-0.1 8.5,-1.1 8.7,-1.2 0.8,-0.8 0.9,-3.3 0.8,-3.7 v 0 c 0,0 0,0 0,-0.1 0,0 0,-0.1 0,-0.1 v 0 c 0.3,-1 -3.4,-2 -3.9,0.4 z" />
</g><path
     id="polygon94"
     inkscape:connector-curvature="0"
     sodipodi:nodetypes="cccccc"
     class="st7"
     d="m 291.2,129.6 -9.2,-16 6,-10.3 v -4.4 l 10.6,9.9 z" /><path
     id="polygon94-2"
     inkscape:connector-curvature="0"
     sodipodi:nodetypes="cccccc"
     class="st7"
     d="m 250.1,129.6 9.2,-16 -6,-10.3 v -4.4 l -10.6,9.9 z" /><path
     id="path124-3-6-0"
     inkscape:connector-curvature="0"
     sodipodi:nodetypes="zczcz"
     class="st13"
     d="m 263.7,52.8 c 3,0.9 3.1,0.5 3.9,0.5 0,0.7 -0.1,1.6 -1.2,1.8 -1.2,0.2 -15.2,-2 -17.2,-0.9 2.4,-4.7 11.5,-2.2 14.5,-1.4 z" /><path
     id="path124-3-6-5-9"
     inkscape:connector-curvature="0"
     sodipodi:nodetypes="cccc"
     class="st8"
     d="M 274.8,93.1 270.2,93 c 0.1,2.8 0.7,1.7 2.3,3.3 1.9,-1.6 2.3,-0.6 2.3,-3.2 z" /><path
     id="path124-3-6-0-3"
     inkscape:connector-curvature="0"
     sodipodi:nodetypes="sczcss"
     class="st13"
     d="m 279.5,52 c -2.9,1.3 -3.5,1 -4.3,1.1 0,0.6 0.3,1.4 1.5,1.6 1.2,0.2 10.3,-5.3 16.9,-0.8 -1.2,-2 -3.6,-4.6 -6.6,-4.5 -3,0.1 -5.9,1.9 -7.5,2.6 z" /><path
     id="svg_7"
     inkscape:connector-curvature="0"
     class="st14"
     d="m 286.3,53.5 c -4.1,0 -8.1,1.3 -12.2,1.8 -1.7,0.2 -3.4,0.3 -5.1,0.1 -2.3,-0.3 -4.4,-0.9 -6.7,-1.3 -2,-0.3 -4.1,-0.6 -6.1,-0.6 -3.6,0 -7,1.1 -10.5,1.6 0,1 -0.2,2.3 0.3,3 0.5,0.7 1.4,1.4 1.7,2.4 0.6,2.3 1.3,4.6 2.4,6.8 0.5,1 1.4,1.8 2.5,2.3 2.5,1.2 5.4,1.4 8.2,1 3.9,-0.5 6,-3.4 7.6,-6.7 0.6,-1.3 0.7,-2.9 1.4,-4.1 0.5,-0.7 1.5,-0.4 2.4,-0.4 0.8,0 1.4,1.3 1.7,2.1 0.9,3 2.3,6.2 5.1,7.7 4.2,2.4 11,1.9 13.8,-2.3 1.1,-1.6 1.4,-3.7 1.9,-5.6 0.3,-1.1 0.6,-2.5 1.8,-3.1 0.5,-0.2 0.1,-1.3 0.2,-1.9 0.1,-0.6 0.2,-1.2 -0.7,-1.3 -1.6,-0.2 -3.2,-0.9 -4.9,-1.1 -1.6,-0.1 -3.2,-0.4 -4.8,-0.4 z m -27.4,1.1 c 1.2,0 2.4,0.1 3.5,0.3 6.8,1.4 6.9,4.1 4.1,9.8 -2.3,4.6 -7,5.8 -11.8,4.6 -2.2,-0.5 -3.7,-2 -4.4,-4.1 -0.7,-2.2 -1.3,-4.5 -1.2,-6.7 0.2,-3 3.7,-3.5 6.3,-3.7 1.2,-0.1 2.3,-0.2 3.5,-0.2 z m 24.9,0 c 1.2,0 2.4,0.1 3.5,0.2 2.5,0.3 6.1,0.7 6.3,3.7 0.1,2.3 -0.4,4.6 -1.2,6.7 -0.7,2.1 -2.2,3.6 -4.4,4.1 -4.8,1.1 -9.5,-0.1 -11.8,-4.6 -2.8,-5.7 -2.7,-8.4 4.1,-9.8 1.2,-0.2 2.3,-0.3 3.5,-0.3 z" /></g>
</svg>
