<?xml version="1.0" encoding="utf-8"?>
<!-- Generator: Adobe Illustrator 25.0.1, SVG Export Plug-In . SVG Version: 6.00 Build 0)  -->
<svg version="1.1"
	 id="svg2" inkscape:export-filename="/home/luisalejandro/Projects/CollageLabs/promo.png" xmlns:cc="http://creativecommons.org/ns#" xmlns:dc="http://purl.org/dc/elements/1.1/" xmlns:inkscape="http://www.inkscape.org/namespaces/inkscape" xmlns:rdf="http://www.w3.org/1999/02/22-rdf-syntax-ns#" xmlns:sodipodi="http://sodipodi.sourceforge.net/DTD/sodipodi-0.dtd" xmlns:svg="http://www.w3.org/2000/svg"
	 xmlns="http://www.w3.org/2000/svg" xmlns:xlink="http://www.w3.org/1999/xlink" x="0px" y="0px" viewBox="0 0 1500 500"
	 style="enable-background:new 0 0 1500 500;" xml:space="preserve">
<style type="text/css">
	.st0{opacity:0.4;}
	.st1{fill:#A77660;}
	.st2{fill:#93BBD3;}
	.st3{fill:#669EC0;}
	.st4{fill:#846558;}
	.st5{fill:#231F20;}
	.st6{fill:#FFFFFF;}
	.st7{fill:#7FB860;}
	.st8{fill:#D1D3D4;}
	.st9{fill:#614A41;}
	.st10{fill:#191D2A;stroke:#191D2A;stroke-width:0.9928;stroke-miterlimit:4.7373;}
	.st11{fill:none;stroke:#000000;stroke-width:1.8417;stroke-miterlimit:2.5154;}
	.st12{enable-background:new    ;}
	.st13{fill:#626363;}
	.st14{fill:#949494;}
</style>
<sodipodi:namedview  bordercolor="#666666" borderopacity="1.0" id="base" inkscape:current-layer="svg2" inkscape:cx="869.07228" inkscape:cy="240.33382" inkscape:document-rotation="0" inkscape:document-units="px" inkscape:guide-bbox="true" inkscape:lockguides="false" inkscape:object-nodes="true" inkscape:object-paths="false" inkscape:pageopacity="1" inkscape:pageshadow="2" inkscape:snap-intersection-paths="false" inkscape:snap-nodes="true" inkscape:snap-smooth-nodes="true" inkscape:window-height="1000" inkscape:window-maximized="1" inkscape:window-width="1920" inkscape:window-x="0" inkscape:window-y="48" inkscape:zoom="0.45192705" pagecolor="#ffffff" showgrid="false" showguides="true">
	</sodipodi:namedview>
<g id="layer1" transform="translate(0,-610.51969)" inkscape:groupmode="layer" inkscape:label="Livello 1">
</g>
<g id="g2036" transform="matrix(1.1,0,0,0.44444,101.4198,239.35202)">
	<g id="g3712" transform="matrix(1.0526,0,0,1.2857,-1.3474133,-14.324267)" class="st0">
	</g>
</g>
<g id="g3541" transform="translate(103.9798,212.56695)">
</g>
<g id="g3536" transform="translate(103.9798,212.56695)">
</g>
<g id="g4076" transform="translate(-645.88727,-411.69958)">
	<g id="g4038" transform="translate(-988.44542,730.01011)">
	</g>
</g>
<g id="text3839" transform="matrix(1.3566899,-0.00504995,0.00550305,1.2449875,1041.1846,-229.00677)">
</g>
<path id="path118-3" inkscape:connector-curvature="0" sodipodi:nodetypes="sscccccccscccccccccscccccccss" class="st1" d="
	M1237.7,158.2c-18.3,0-33.2,19.3-33.2,26.6c0,4-0.4,15.7-0.6,26.7c-0.1-0.7-1.1-3.9-2.1-4.8c-1.1-1.1-2.6,1-2.6,1s-0.8,9.1-0.4,12.5
	c0.4,3.4,4,12.3,4,12.3h1.5v-1.5c0.1,1,0.1,2.1,0.3,2.9c1,5.6,4.4,16,7.9,24.9l0.3,25.2l8.3,9.5l7.9,59l9,17.4l12.3-51.1l2.6-25.3
	l7.7-10.5l0.4-20c3.9-9.9,7.4-22.7,8.7-28.8c0.3-1,0.4-2.3,0.6-4v2.3h1.5c0,0,3.6-8.8,4-12.3s-0.4-12.5-0.4-12.5s-1.5-2.1-2.6-1
	c-0.7,0.7-1.4,2.6-1.8,3.9c0.1-10.7,0.1-21.8,0.3-25.9C1271.3,176.8,1256.1,158.2,1237.7,158.2L1237.7,158.2z"/>
<path id="path88" inkscape:connector-curvature="0" sodipodi:nodetypes="cczcccscsccccsccczcccccccccc" class="st2" d="
	M1202.6,281.6l-59,19.1c-13.6,16.5-59.8,90.9-51.9,118.2c7.9,27.1,7.2,5.1,7.2,5.1l29.1-4.7c0,0-5,8.8-0.4-7.9
	c4.4,2.8,13.6-10.6,19.4-20c7.4-12.4,11.7-25.5,12.5-25.3c0-8-4.1,8.4,3.9,37.1c9.4,33.7,4,103.4,3.6,120.8c0,0,15.2,33.6,69.8,33.7
	v0.1c55,0,71.4-34.6,71.4-34.6c-2.6-21.4-12.7-83.9-4.8-116.5c0.6-2.2,0,0,3-9.4c-4.3,1.9,2.8,23.6,2.8,23.6l39.5,1.1
	c0,0,2.3-28.7,0.1-49.2c-2.3-20.5-5.2-54.5-17.6-72c-0.4,0.1-1,0.4-1.4,0.7l0.3-0.6l-59.8-18.7l-17.5,6.2l-6.7,34l-7,42.3
	l-13.5-39.9l-4.3-36.9L1202.6,281.6z"/>
<path id="polygon104" inkscape:connector-curvature="0" class="st3" d="M1298.4,398.6l-20.5,9.9l-20.5-9.9v-32.9h41V398.6
	L1298.4,398.6z"/>
<path id="rect108" inkscape:connector-curvature="0" sodipodi:nodetypes="ccccccccccccccccc" class="st3" d="M1252.6,287.4
	l-3.6,26.4l-6.1,24.5v0.1c-0.6,1.9-1.2,4.5-2.2,8.8l-7.3,34.3l0,0v0.1l-0.7,176l5.5-0.1l-0.7-179.6c4.3-20.5,5.9-26.7,6.5-29.3v0.1
	l0.1-0.4c0-0.1,0.1-0.4,0.1-0.7l8-45.9L1252.6,287.4z"/>
<path id="rect108-9" inkscape:connector-curvature="0" sodipodi:nodetypes="ccccccccc" class="st3" d="M1223.8,311.9l4.5,26.6v0.1
	c0.6,1.9,1.2,4.5,2.2,8.8l9.5,22c0,0-2.3-5-11.7-20.7c-2.9-16.1-6.3-33.1-7.3-47l-0.1-14.6C1223.5,301.6,1223.1,301.2,1223.8,311.9
	L1223.8,311.9z"/>
<path id="polygon104-1" inkscape:connector-curvature="0" sodipodi:nodetypes="czsccccc" class="st3" d="M1096.2,434.5
	c0,0-3.3-4.4-0.7-14.5c2.8-10.1,13.2-16.8,26.9-11.6c6.7,2.6,14.5,2.9,9.6,14.3c0,4-1.8,7.3-1.8,7.3c-3.3-5.5-8.4-12.3-21.6-4.4
	c-5,2.9-7.2,13.8-7.2,13.8L1096.2,434.5z"/>
<path id="polygon104-1-2" inkscape:connector-curvature="0" sodipodi:nodetypes="czsccccc" class="st3" d="M1307,425.6
	c0,0-2.1-5.1,4.4-13.2c6.3-8.1,20-10.6,32.6-1.2c6.3,4.7,14.3,7.4,5.4,16.1c-1.4,3.6-4.4,6.1-4.4,6.1c-1.5-6.2-4.7-13.9-21.5-11.3
	c-6.2,1-12.5,9.9-12.5,9.9L1307,425.6z"/>
<path id="path124" inkscape:connector-curvature="0" sodipodi:nodetypes="cccczzc" class="st4" d="M1271,210.8
	c0,9.2-3.3,45.9-12.1,45.3c-8.8,23.4-32.5,23.7-41-0.4c-9.6-1.2-13.8-35-13.8-44.2c-2.6,25.1,6.7,51.1,19.1,60.6
	c12.4,9.5,16.8,9.8,30.3,0C1266.7,262.5,1271.6,234.8,1271,210.8L1271,210.8z"/>
<path id="path126" inkscape:connector-curvature="0" sodipodi:nodetypes="czccccccczzccccczcccc" class="st5" d="M1210.7,150.3
	c2.3,0,23.7-1.9,31,1.2c7.3,3.2,6.2,3.6,10.6,7c-0.7-2.1-0.1-0.3-1.5-2.3c5.1,2.3,12.4,5.8,14.1,14.3c4.3,3.6,5.8,5.5,8.5,12.4
	l-1.7,28.4l-4-19.7c0,0-4.8-4.1-5.8-8.4c-4.1,0.3-15.2-4.3-18.6-2.5c-3.4,1.8-5.2,3.3-10.1,1.2c-5-2.1-5.9-1.5-11.3,1.1
	c-3.7,1-12.9,5.6-12.9,5.6l-5.2,22.3l-1.4-29.1l-6.6-6.9c0,0,1-2.3,4.5-4.7c3.6-2.3,5.8-2.9,5.8-2.9c-3.9-1.9-4.1-3.2-7.9-5
	c5.9-6.6,12.3-7.4,15.3-7.3C1211.7,154.2,1211.4,152.7,1210.7,150.3z"/>
<g id="g4658" transform="matrix(4.4868924,0,0,5.829977,263.08594,-228.14786)">
	<path id="path124-3-6" inkscape:connector-curvature="0" sodipodi:nodetypes="ccccc" class="st4" d="M216.6,80.6h0.6l-0.1,1.2
		c-1.2,0-2.5,0-3,0.1C214.2,80.7,216.1,81.4,216.6,80.6z"/>
	<path id="path124-3-6-5" inkscape:connector-curvature="0" sodipodi:nodetypes="ccccc" class="st4" d="M218.2,80.6h-0.7l0.1,1.2
		c1.2,0,2.5,0,3,0.1C220.6,80.7,218.6,81.4,218.2,80.6z"/>
</g>
<path id="path138" inkscape:connector-curvature="0" sodipodi:nodetypes="cccccccccccccccccccccccccccccccccccccc" class="st1" d="
	M1102.3,431.6l-0.1,0.3c-1,3.2-1,6.6,0.1,9.9c0.4,1.4,1.2,2.8,1.8,4.1l1.8,4l3.7,8.1l7.3,16.1l3.7,8.1l1.8,4l1,2.1l0.4,1
	c0.1,0.1,0.1,0.3,0.3,0.6l0.1,0.6l3.2,9c0.6,1.9,1.2,3.9,1.9,5.5l0.8,2.2v0.1c0.4,1.1,1,2.1,1.8,3c9.9,17.1,25.8,15.7,37.2,14.9
	c0,0,4.3-3,3-6.6c0,0-7.4-3.4-14.6-14.2l-0.7-1.9c-0.1-0.8,0-1.5,0.1-2.3l5,7.3c1.5,2.3,4.7,2.9,6.9,1.4s2.9-4.7,1.2-6.9l-10.3-15.2
	c-1.1-1.7-3.2-2.3-5-2.1v-0.1l-9.2,2.8l-1.1-3.4c-0.4-1.4-0.8-2.9-1.2-4.3l-1.2-4.3l-2.3-8.5l-4.7-17.1l-2.3-8.5l-0.8-2.9
	C1130.8,431.2,1126,405.3,1102.3,431.6L1102.3,431.6z"/>
<g id="g4889" transform="matrix(6.592358,0,0,6.592358,68.668735,-296.87142)">
	<g id="g156">
		<path id="path158" inkscape:connector-curvature="0" class="st6" d="M178.8,109.9l0.4,8c0,0.3-0.7,0.6-1.7,0.7
			c-1,0.1-1.8,0-1.8-0.3l-2.1-7.7L178.8,109.9z"/>
		<path id="path160" inkscape:connector-curvature="0" class="st7" d="M174.9,114.5c-0.1-1.1,0.6-2.1,1.7-2.3
			c1.1-0.1,2.1,0.6,2.3,1.7c0.1,1.1-0.6,2.1-1.7,2.3C176,116.2,175,115.6,174.9,114.5z"/>
		<polygon id="polygon162" class="st8" points="173.7,110.6 173.8,111 178.8,110 178.8,109.9 		"/>
		<path id="path164" inkscape:connector-curvature="0" class="st6" d="M173.4,110.5l-0.1-0.4l0.4-0.1v-0.6c0-0.1,1-0.4,2.3-0.6
			c1.2-0.1,2.3-0.3,2.3-0.1l0.1,0.6l0.4-0.1l0.1,0.4l0.1,0.1L173.4,110.5L173.4,110.5z"/>
	</g>
	
		<path id="path154" inkscape:connector-curvature="0" sodipodi:nodetypes="ccccccccccccccccccccccccccccccccccccccc" class="st1" d="
		M188.3,111l-8.3,3.3c-0.1-0.4-0.3-0.7-0.3-1.1l0,0c0-0.1,0-0.1-0.1-0.3l0,0l0,0c-0.1-0.1-0.3-0.3-0.4-0.3c-0.4-0.1-0.8,0.1-0.8,0.4
		v0.1c-1.2,0.3-1.8,0.1-2.5,0.1l0,0l-1.9-0.3c-0.3,0-0.6,0.1-0.6,0.4s0.1,0.6,0.4,0.6l1.7,0.3c0,0.1,0,0.1,0,0.3l-1.1-0.1
		c-0.3,0-0.6,0.1-0.6,0.4s0.1,0.6,0.4,0.6h0.1c-0.1,0.1-0.3,0.3-0.3,0.4c0,0.3,0.1,0.6,0.4,0.6l1,0.1c0,0.1,0.1,0.1,0.1,0.3
		l-0.6,0.4c-0.3,0.1-0.4,0.4-0.4,0.7c0,0.3,0.4,0.4,0.7,0.4l0.8-0.1c0.3,0.1,0.6,0.1,1,0l1.2-0.3c0.7,0,1.5-0.1,2.2-0.4
		c1.1-0.1,11.7-1.5,12-1.7c1.1-1.1,1.2-4.5,1.1-5.1l0,0c0,0,0,0,0-0.1v-0.1l0,0C194,109.1,188.9,107.7,188.3,111L188.3,111z"/>
</g>
<path id="polygon94" inkscape:connector-curvature="0" sodipodi:nodetypes="cccccc" class="st3" d="M1264.8,309.6l-12.7-22l8.3-14.2
	v-6.1l14.6,13.6L1264.8,309.6z"/>
<path id="polygon94-2" inkscape:connector-curvature="0" sodipodi:nodetypes="cccccc" class="st3" d="M1208.2,309.6l12.7-22
	l-8.3-14.2v-6.1l-14.6,13.6L1208.2,309.6z"/>
<path id="path124-3-6-0" inkscape:connector-curvature="0" sodipodi:nodetypes="zczcz" class="st9" d="M1226.9,203.8
	c4.1,1.2,4.3,0.7,5.4,0.7c0,1-0.1,2.2-1.7,2.5c-1.7,0.3-20.9-2.8-23.7-1.2C1210.3,199.2,1222.8,202.7,1226.9,203.8z"/>
<path id="path124-3-6-5-9" inkscape:connector-curvature="0" sodipodi:nodetypes="cccc" class="st4" d="M1242.2,259.3l-6.3-0.1
	c0.1,3.9,1,2.3,3.2,4.5C1241.7,261.5,1242.2,262.9,1242.2,259.3z"/>
<path id="path124-3-6-0-3" inkscape:connector-curvature="0" sodipodi:nodetypes="sczcss" class="st9" d="M1248.7,202.7
	c-4,1.8-4.8,1.4-5.9,1.5c0,0.8,0.4,1.9,2.1,2.2c1.7,0.3,14.2-7.3,23.3-1.1c-1.7-2.8-5-6.3-9.1-6.2
	C1254.9,199.2,1250.9,201.7,1248.7,202.7z"/>
<path id="svg_7" inkscape:connector-curvature="0" class="st10" d="M1258.1,204.8c-5.6,0-11.2,1.8-16.8,2.5c-2.3,0.3-4.7,0.4-7,0.1
	c-3.2-0.4-6.1-1.2-9.2-1.8c-2.8-0.4-5.6-0.8-8.4-0.8c-5,0-9.6,1.5-14.5,2.2c0,1.4-0.3,3.2,0.4,4.1c0.7,1,1.9,1.9,2.3,3.3
	c0.8,3.2,1.8,6.3,3.3,9.4c0.7,1.4,1.9,2.5,3.4,3.2c3.4,1.7,7.4,1.9,11.3,1.4c5.4-0.7,8.3-4.7,10.5-9.2c0.8-1.8,1-4,1.9-5.6
	c0.7-1,2.1-0.6,3.3-0.6c1.1,0,1.9,1.8,2.3,2.9c1.2,4.1,3.2,8.5,7,10.6c5.8,3.3,15.2,2.6,19-3.2c1.5-2.2,1.9-5.1,2.6-7.7
	c0.4-1.5,0.8-3.4,2.5-4.3c0.7-0.3,0.1-1.8,0.3-2.6c0.1-0.8,0.3-1.7-1-1.8c-2.2-0.3-4.4-1.2-6.7-1.5
	C1262.5,205.2,1260.3,204.8,1258.1,204.8z M1220.3,206.3c1.7,0,3.3,0.1,4.8,0.4c9.4,1.9,9.5,5.6,5.6,13.5c-3.2,6.3-9.6,8-16.3,6.3
	c-3-0.7-5.1-2.8-6.1-5.6c-1-3-1.8-6.2-1.7-9.2c0.3-4.1,5.1-4.8,8.7-5.1C1217.2,206.4,1218.7,206.3,1220.3,206.3z M1254.6,206.3
	c1.7,0,3.3,0.1,4.8,0.3c3.4,0.4,8.4,1,8.7,5.1c0.1,3.2-0.6,6.3-1.7,9.2c-1,2.9-3,5-6.1,5.6c-6.6,1.5-13.1-0.1-16.3-6.3
	c-3.9-7.9-3.7-11.6,5.6-13.5C1251.5,206.4,1253,206.3,1254.6,206.3z"/>
<path id="path4624" inkscape:connector-curvature="0" class="st11" d="M907.4,446.7l73-283.5"/>
<g class="st12">
	<path class="st13" d="M145.5,185.7v-39.7h2.6v37.2h18.2v2.5H145.5z"/>
	<path class="st13" d="M198.3,182c-2.5,2.9-6.2,4.3-11.2,4.3c-5,0-8.7-1.4-11.2-4.3c-2.5-2.9-3.7-6.7-3.7-11.8v-20.4h2.6v20.5
		c0,9.2,4.1,13.8,12.3,13.8c8.1,0,12.3-4.5,12.3-13.8v-20.5h2.6v20.5C202,175.3,200.8,179.1,198.3,182z"/>
	<path class="st13" d="M215,185.7v-36h2.6v36C217.6,185.7,215,185.7,215,185.7z"/>
	<path class="st13" d="M238.1,151.3c-1.9,0-3.6,0.4-4.8,1.4c-1.2,1-1.9,2.3-1.9,4c0,1.9,0.8,3.9,2.5,5.4c1.2,1.1,2.8,2.3,4.5,3.6
		c1.9,1.2,3.2,2.2,3.9,2.8c0.7,0.6,1.5,1.4,2.6,2.3c1.8,1.8,2.8,3.9,2.8,6.2c0,3-1,5.4-3,7c-2.1,1.5-5,2.3-8.5,2.3
		c-3.6,0-6.7-1-9.2-2.9l1.4-1.9c2.5,1.7,5.2,2.6,8,2.6s5-0.6,6.6-1.8c1.5-1.2,2.3-2.9,2.3-5c0-1.8-0.8-3.6-2.3-5.1
		c-1.1-1.1-2.6-2.3-4.4-3.6c-1.9-1.2-3.2-2.2-3.9-2.8c-0.7-0.6-1.7-1.4-2.6-2.3c-1.9-1.9-2.9-4.1-2.9-6.5c0-2.5,0.8-4.4,2.6-5.8
		c1.8-1.4,4.1-2.1,7.3-2.1c3.2,0,5.9,0.6,8.4,1.8l-1,2.1C243.6,151.9,241,151.3,238.1,151.3z"/>
	<path class="st13" d="M280.4,172l-5.6,13.8h-2.9l16.7-39.9h1.5l16.8,39.9h-3l-5.6-13.8H280.4z M289.2,150.2c0,0-0.1,0.3-0.3,0.7
		c-0.6,1.7-1,2.9-1.5,4l-6.1,14.7h15.8l-6.1-14.7C289.8,152.1,289.2,150.6,289.2,150.2z"/>
	<path class="st13" d="M314.4,185.7v-36h2.6v33.6h16.5v2.3C333.6,185.7,314.4,185.7,314.4,185.7z"/>
	<path class="st13" d="M341,185.7v-36h16.8v2.2h-14.2v13.1h12.8v2.2h-12.8v16.3h14.7v2.3H341V185.7z"/>
	<path class="st13" d="M368.6,181.6v-31.8h2.5v30.3c0,3-0.4,5.6-1.4,8s-1.9,4.1-3.2,5.4c-1.2,1.2-2.8,2.6-4.7,4l-1.1-1.7
		C365.9,191.7,368.6,187,368.6,181.6z"/>
	<path class="st13" d="M386.2,173.2l-5.1,12.5h-2.6l15-36.2h1.5l15.2,36.2h-2.9l-5.2-12.5C402,173.2,386.2,173.2,386.2,173.2z
		 M394,153.6c-0.6,1.7-1.1,3-1.5,4.1l-5.5,13.4h14.2l-5.5-13.2C394.9,155.7,394.3,154.3,394,153.6z"/>
	<path class="st13" d="M417.5,185.7v-36.2h1.2l23.6,27.1c0.8,1,1.7,1.9,2.3,2.9s1.1,1.4,1.1,1.5c-0.1-0.8-0.1-2.6-0.1-5.2v-26h2.6
		V186h-1.2l-24.1-27.5l-3-3.7c0.1,0.7,0.1,2.5,0.1,5.2v25.9h-2.5V185.7z"/>
	<path class="st13" d="M472,149.4c5.5,0,10.2,1.7,13.9,5.1c3.7,3.4,5.5,8.1,5.5,13.9c0,5.8-1.7,10.3-5.1,13.2
		c-3.4,2.9-7.9,4.4-13.2,4.4c-3.7,0-7.6-0.1-11.6-0.6v-35.8C464.4,149.5,468,149.4,472,149.4z M473.1,183.8c4.7,0,8.5-1.2,11.4-3.9
		c2.9-2.6,4.3-6.3,4.3-11.6c0-5.2-1.7-9.2-4.8-12.3c-3.2-3-7.2-4.5-12-4.5c-3.3,0-5.9,0.1-7.7,0.3v31.5
		C466.4,183.7,469.4,183.8,473.1,183.8z"/>
	<path class="st13" d="M502.5,185.7v-35.8c3.2-0.3,5.9-0.4,8.1-0.4c3.4,0,6.2,0.8,8.4,2.6c2.2,1.8,3.3,4.3,3.3,7.6
		c0,2.2-0.7,4.1-1.9,6.1c-1.2,1.8-2.6,3.3-4.3,4.5c4.4,5.8,7.2,9.4,8.1,10.5c2.1,2.2,4.4,3.4,6.9,3.7v1.7c-2.1,0-3.7-0.3-5.1-1
		c-1.2-0.6-2.6-1.5-3.9-2.9c-1.2-1.4-4.1-5.1-8.4-11c-3,0-5.9-0.1-8.8-0.3v14.7H502.5z M512.5,169.1c1.4,0,3-1,4.7-2.9
		c1.7-1.9,2.5-4.1,2.5-6.7s-0.8-4.5-2.6-5.8c-1.8-1.4-4-1.9-6.7-1.9c-1.5,0-3.2,0.1-5.2,0.3v16.9
		C507.7,169.1,510.2,169.1,512.5,169.1z"/>
	<path class="st13" d="M550.8,186.3c-5.1,0-9.5-1.8-12.9-5.4s-5.2-8-5.2-13.2c0-5.2,1.8-9.6,5.2-13.2s7.7-5.4,12.9-5.4
		c5.1,0,9.5,1.8,12.9,5.4s5.2,8,5.2,13.2c0,5.2-1.8,9.6-5.2,13.2C560.2,184.5,555.9,186.3,550.8,186.3z M550.8,151.4
		c-4.4,0-8.1,1.5-11,4.7c-2.9,3.2-4.4,7-4.4,11.6s1.5,8.4,4.4,11.6c2.9,3.2,6.6,4.7,11,4.7c4.4,0,8.1-1.5,11-4.7s4.4-7,4.4-11.6
		s-1.5-8.4-4.4-11.6C558.9,153,555.2,151.4,550.8,151.4z"/>
</g>
<g class="st12">
	<path class="st14" d="M167.2,262.6v-39.7h20.2v2.3h-17.6v14.6h16.1v2.2h-16.1v20.5H167.2z"/>
	<path class="st14" d="M222.7,258.9c-2.5,2.9-6.2,4.3-11.2,4.3c-5,0-8.7-1.4-11.2-4.3c-2.5-2.9-3.7-6.7-3.7-11.8v-20.5h2.6V247
		c0,9.2,4.1,13.8,12.3,13.8s12.3-4.5,12.3-13.8v-20.5h2.6V247C226.4,252.1,225.2,256,222.7,258.9z"/>
	<path class="st14" d="M239.4,262.6v-36h2.6v33.6h16.5v2.3H239.4L239.4,262.6z"/>
	<path class="st14" d="M265.9,262.6v-36h2.6v33.6h16.5v2.3H265.9L265.9,262.6z"/>
	<path class="st14" d="M330.4,226.5c-2.8-1.1-5.4-1.7-8-1.7c-5.4,0-8.1,1.9-8.1,5.9c0,1.8,0.6,3.3,1.8,4.8c1.2,1.5,2.8,2.9,4.4,4
		c1.8,1.1,3.4,2.3,5.2,3.6c1.8,1.2,3.2,2.6,4.4,4.4c1.2,1.8,1.8,3.6,1.8,5.5c0,3.3-1.1,5.9-3.4,7.6c-2.3,1.7-5.4,2.6-9.4,2.6
		c-4,0-7.3-1-10.2-3l1.4-1.9c2.6,1.8,5.6,2.6,8.8,2.6c3.2,0,5.6-0.7,7.3-1.9c1.7-1.2,2.6-3.2,2.6-5.5c0-1.7-0.6-3.3-1.8-4.7
		c-1.2-1.5-2.8-2.9-4.4-4c-1.8-1.2-3.4-2.5-5.2-3.7c-1.8-1.2-3.2-2.8-4.4-4.5s-1.8-3.6-1.8-5.6c0-2.6,1-4.7,2.9-6.2
		c1.9-1.5,4.5-2.3,7.9-2.3s6.3,0.7,9.2,1.9L330.4,226.5z"/>
	<path class="st14" d="M348,228.9h-12.3v-2.2h26.9v2.2h-12.3v33.7h-2.5v-33.7H348z"/>
	<path class="st14" d="M368.6,250.1l-5.1,12.5h-2.6l15-36.2h1.5l15.2,36.2h-2.9l-5.2-12.5H368.6z M376.5,230.5
		c-0.6,1.7-1.1,3-1.5,4.1l-5.5,13.4h14.2l-5.5-13.2C377.2,232.7,376.7,231.2,376.5,230.5z"/>
	<path class="st14" d="M427.2,260.8c-2.8,1.5-6.6,2.3-11.6,2.3s-9.2-1.8-13.1-5.4c-3.7-3.6-5.6-8-5.6-13.2s1.7-9.6,5-13.2
		c3.3-3.6,7.4-5.4,12.7-5.4c4.1,0,8.3,0.7,12.3,1.9l-0.7,2.1c-3.9-1.2-7.9-1.8-12-1.8s-7.6,1.5-10.3,4.7c-2.8,3.2-4.1,6.9-4.1,11.4
		s1.7,8.4,4.8,11.6c3.2,3.2,7,4.8,11.3,4.8c4.3,0,7.7-0.6,10.6-1.8L427.2,260.8z"/>
	<path class="st14" d="M438.8,226.7v36h-2.5v-36H438.8z M458.1,226.7L442.8,244c6.1,7.3,10.2,12,12.4,13.9s4.4,3,6.6,3.3v1.7
		c-2.1,0-3.7-0.3-5.1-1c-1.2-0.6-2.5-1.4-3.4-2.3s-3.2-3.3-6.3-7c-3.3-3.7-5.8-6.6-7.3-8.7l15.4-17.5h3V226.7z"/>
	<path class="st14" d="M499.7,222.5c6.1,0,11.2,1.9,15.3,5.6c4.1,3.9,6.2,9,6.2,15.4c0,3.3-0.6,6.2-1.5,8.7c-1,2.5-2.5,4.5-4.4,6.1
		c-3.9,3-8.5,4.5-14.2,4.5c-3.7,0-8-0.1-12.7-0.6v-39.5C492.1,222.7,495.8,222.5,499.7,222.5z M500.9,260.7c5.2,0,9.4-1.4,12.5-4.3
		c3.2-2.9,4.7-7,4.7-12.8c0-5.6-1.8-10.2-5.4-13.6c-3.6-3.3-8-5.1-13.2-5.1c-3.3,0-6.3,0.1-8.8,0.3v35
		C493.4,260.5,496.7,260.7,500.9,260.7z"/>
	<path class="st14" d="M532.8,262.6v-36h16.8v2.2h-14.2v13.1h12.8v2.2h-12.8v16.3h14.7v2.3h-17.4V262.6z"/>
	<path class="st14" d="M572.2,255l12-28.4h2.6l-15.4,36.2h-1.5l-15.4-36.2h2.8l13.6,32C570.9,258.1,571.3,256.8,572.2,255z"/>
	<path class="st14" d="M594.2,262.6v-36H611v2.2h-14.2v13.1h12.8v2.2h-12.8v16.3h14.7v2.3h-17.4V262.6z"/>
	<path class="st14" d="M621.7,262.6v-36h2.6v33.6h16.5v2.3H621.7L621.7,262.6z"/>
	<path class="st14" d="M662,263.2c-5.1,0-9.5-1.8-12.9-5.4c-3.4-3.6-5.2-8-5.2-13.2s1.8-9.6,5.2-13.2s7.7-5.4,12.9-5.4
		c5.1,0,9.5,1.8,12.9,5.4c3.4,3.6,5.2,8,5.2,13.2s-1.8,9.6-5.2,13.2C671.5,261.4,667.1,263.2,662,263.2z M662,228.3
		c-4.4,0-8.1,1.5-11,4.7c-2.9,3.2-4.4,7-4.4,11.6c0,4.5,1.5,8.4,4.4,11.6c2.9,3.2,6.6,4.7,11,4.7s8.1-1.5,11-4.7
		c2.9-3.2,4.4-7,4.4-11.6c0-4.5-1.5-8.4-4.4-11.6C670.2,230,666.5,228.3,662,228.3z"/>
	<path class="st14" d="M691.2,262.6v-35.8c2.8-0.3,5.6-0.4,8.8-0.4c3,0,5.6,0.8,7.9,2.5c2.2,1.7,3.2,4.1,3.2,7.4s-1.5,6.1-4.4,8.1
		c-2.9,2.1-6.3,3.2-10.3,3.2c-0.1,0-0.4,0-0.6,0v-1.8c0.1,0,0.3,0,0.4,0c3.3,0,6.2-0.8,8.5-2.6c2.5-1.8,3.7-4,3.7-6.7
		s-0.8-4.8-2.6-6.1c-1.7-1.2-4-1.9-6.7-1.9c-1.5,0-3.2,0.1-5.2,0.3v33.7h-2.6V262.6z"/>
	<path class="st14" d="M720.5,262.6v-36h16.8v2.2h-14.2v13.1h12.8v2.2h-12.8v16.3h14.7v2.3h-17.4V262.6z"/>
	<path class="st14" d="M748.1,262.6v-35.8c3.2-0.3,5.9-0.4,8.1-0.4c3.4,0,6.2,0.8,8.4,2.6c2.2,1.8,3.3,4.3,3.3,7.6
		c0,2.2-0.7,4.1-1.9,6.1c-1.2,1.9-2.6,3.3-4.3,4.5c4.4,5.8,7.2,9.4,8.1,10.5c2.1,2.2,4.4,3.4,6.9,3.7v1.7c-2.1,0-3.7-0.3-5.1-1
		c-1.2-0.6-2.6-1.5-3.9-2.9c-1.2-1.4-4.1-5.1-8.4-11c-3,0-5.9-0.1-8.8-0.3v14.7H748.1L748.1,262.6z M758,246.1c1.4,0,3-1,4.7-2.9
		c1.7-1.9,2.5-4.1,2.5-6.7s-0.8-4.5-2.6-5.8c-1.8-1.4-4-1.9-6.7-1.9c-1.5,0-3.2,0.1-5.2,0.3v16.9C753.3,245.9,755.8,246.1,758,246.1
		z"/>
</g>
</svg>
