<?xml version="1.0" encoding="UTF-8" standalone="no"?>
<!-- Generator: Adobe Illustrator 16.0.4, SVG Export Plug-In . SVG Version: 6.00 Build 0)  -->

<svg
   xmlns:dc="http://purl.org/dc/elements/1.1/"
   xmlns:cc="http://creativecommons.org/ns#"
   xmlns:rdf="http://www.w3.org/1999/02/22-rdf-syntax-ns#"
   xmlns:svg="http://www.w3.org/2000/svg"
   xmlns="http://www.w3.org/2000/svg"
   xmlns:sodipodi="http://sodipodi.sourceforge.net/DTD/sodipodi-0.dtd"
   xmlns:inkscape="http://www.inkscape.org/namespaces/inkscape"
   version="1.1"
   x="0px"
   y="0px"
   width="2400"
   height="1900"
   viewBox="0 0 2400 1900"
   enable-background="new 0 0 93 274"
   xml:space="preserve"
   id="svg2"
   inkscape:version="0.92.3 (2405546, 2018-03-11)"
   sodipodi:docname="avatar-complete2.svg"
   inkscape:export-filename="/home/huntingbears/Escritorio/avatar-complete.svg.png"
   inkscape:export-xdpi="87.20842"
   inkscape:export-ydpi="87.20842"><metadata
     id="metadata186"><rdf:RDF><cc:Work
         rdf:about=""><dc:format>image/svg+xml</dc:format><dc:type
           rdf:resource="http://purl.org/dc/dcmitype/StillImage" /><dc:title></dc:title></cc:Work></rdf:RDF></metadata><defs
     id="defs184" /><sodipodi:namedview
     pagecolor="#f8d983"
     bordercolor="#666666"
     borderopacity="1"
     objecttolerance="10"
     gridtolerance="10"
     guidetolerance="10"
     inkscape:pageopacity="1"
     inkscape:pageshadow="2"
     inkscape:window-width="1600"
     inkscape:window-height="820"
     id="namedview182"
     showgrid="false"
     inkscape:zoom="0.19955369"
     inkscape:cx="998.02974"
     inkscape:cy="1270.5984"
     inkscape:window-x="0"
     inkscape:window-y="48"
     inkscape:window-maximized="1"
     inkscape:current-layer="svg2"
     showguides="false"
     fit-margin-top="-0.5"
     fit-margin-left="-0.4"><sodipodi:guide
       position="-23.075212,206.66102"
       orientation="1,0"
       id="guide4818"
       inkscape:locked="false" /></sodipodi:namedview><g
     id="BASEMENT"
     transform="translate(0,1626)" /><g
     id="BG"
     transform="translate(0,1626)" /><g
     id="LAYOUT"
     transform="translate(0,1626)" /><g
     id="SPRITE_B"
     transform="translate(0,1626)" /><g
     id="MENU"
     transform="translate(0,1626)" /><g
     id="g939"
     transform="matrix(1.1155572,0,0,1.1155572,1248.0535,497.70967)"><path
       id="path118-3"
       d="M 358.85066,158.05055 C 335.83556,158.05055 317.17976,182.17249 317.17976,191.37309 C 317.17976,196.44613 316.63928,210.99576 316.48466,225.0219 C 316.24141,224.11238 315.15302,220.14346 313.90283,218.9078 C 312.50336,217.5232 310.59044,220.14197 310.59044,220.14197 C 310.59044,220.14197 309.57892,231.49553 310.03719,235.81732 C 310.48997,240.14345 315.05898,251.18059 315.05898,251.18059 L 317.05918,251.14499 L 317.03088,249.18025 C 317.14941,250.45273 317.24841,251.83929 317.41389,252.77636 C 318.67558,259.9205 322.83455,272.816 327.15957,284.03485 L 327.42307,315.72373 L 337.69133,327.74683 L 347.60177,401.66419 L 358.89568,423.37165 L 374.27415,359.30335 L 377.48549,327.50689 L 387.20604,314.40613 L 387.73308,289.32617 C 392.6082,276.87972 397.03508,260.75724 398.67036,253.17356 C 398.93344,251.95353 399.15122,250.23259 399.3371,248.2298 L 399.2945,251.14499 L 401.2947,251.18059 C 401.2947,251.18059 405.86371,240.14345 406.31649,235.81732 C 406.77472,231.49553 405.7561,220.14197 405.7561,220.14197 C 405.7561,220.14197 403.85028,217.5232 402.4508,218.9078 C 401.49959,219.84796 400.73865,222.13589 400.23781,223.80901 C 400.40221,210.31025 400.31401,196.55354 400.52155,191.37309 C 400.91864,181.45833 381.86575,158.05055 358.85063,158.05055 Z"
       style="fill:#a77660;fill-opacity:1;stroke:none"
       inkscape:connector-curvature="0"
       sodipodi:nodetypes="sscccccccscccccccccscccccccss" /><g
       transform="matrix(3.6315747,0,0,3.6315747,187.83913,106.58109)"
       id="g4909"><g
         id="g4897"><path
           style="fill:#242424;fill-opacity:1"
           inkscape:connector-curvature="0"
           id="path14"
           d="M 16.107,259.695 C 15.055,262.569 15.295,268.078 15.295,268.078 C 15.295,268.078 14.435,270.425 14.244,270.618 C 14.053,270.81 13.671,271.431 15.582,271.336 C 17.491,271.242 26.233,270.81 28.524,270.761 C 30.818,270.713 30.294,270.377 30.34,270.377 C 30.388,270.377 29.528,268.078 28.335,266.449 C 27.141,264.821 26.997,256.821 26.661,254.521 C 26.328,252.222 25.182,246.665 25.325,246.714 C 25.468,246.762 24.272,245.085 22.219,245.229 C 20.165,245.372 19.163,245.755 19.163,245.755 L 19.21,246.665 C 19.21,246.665 17.539,246.762 17.299,246.426 C 17.104,249.533 17.158,256.821 16.107,259.695 Z" /><path
           style="fill:#353535;fill-opacity:1;stroke:none"
           inkscape:connector-curvature="0"
           id="path16"
           d="M 30.388,270.546 C 29.388,267.842 28.142,265.939 23.148,265.939 C 19.626,265.939 16.664,268.251 15.784,271.395 C 17.012,272.049 28.424,271.529 30.388,270.546 Z" /><path
           style="fill:#121212;fill-opacity:1"
           inkscape:connector-curvature="0"
           id="path18"
           d="M 14.079,271.001 C 13.234,273.937 15.296,274 15.296,274 C 26.512,274 26.661,274 30.328,274 C 30.328,274 31.131,273.139 30.342,270.377 C 30.207,270.571 24.633,271.058 20.337,271.09 C 15.783,271.123 15.278,271.562 14.079,271.001 Z" /><path
           style="fill:#7b7b7b;fill-opacity:1"
           inkscape:connector-curvature="0"
           id="path20"
           d="M 15.429,271.574 C 14.869,271.574 14.465,271.502 13.956,271.262 L 14.202,270.737 C 14.867,271.05 15.296,271.024 16.563,270.941 C 17.406,270.887 18.556,270.814 20.334,270.8 C 24.63,270.768 29.788,270.296 30.196,270.132 C 30.194,270.133 30.145,270.153 30.104,270.211 L 30.578,270.543 C 30.492,270.664 30.387,270.816 26.922,271.083 C 24.659,271.256 22.261,271.365 20.338,271.378 C 18.575,271.393 17.435,271.466 16.602,271.518 C 16.127,271.55 15.752,271.574 15.429,271.574 Z" /></g><g
         id="g4903"><path
           style="fill:#242424;fill-opacity:1"
           inkscape:connector-curvature="0"
           id="path24"
           d="M 90.573,260.332 C 91.629,263.221 90.279,263.149 91.582,268.079 C 91.582,268.079 92.439,270.426 92.633,270.619 C 92.824,270.811 93.204,271.432 91.295,271.337 C 89.384,271.243 80.644,270.811 78.35,270.762 C 76.057,270.714 76.583,270.378 76.535,270.378 C 76.488,270.378 77.628,266.944 78.821,265.315 C 80.014,263.686 79.88,256.822 80.213,254.523 C 80.547,252.224 81.693,246.667 81.551,246.716 C 81.409,246.764 82.603,245.087 84.655,245.231 C 86.709,245.374 87.714,245.757 87.714,245.757 L 87.665,246.667 C 87.665,246.667 87.837,247.712 88.076,247.378 C 88.274,250.483 89.522,257.458 90.573,260.332 Z" /><path
           style="fill:#353535;fill-opacity:1;stroke:none"
           inkscape:connector-curvature="0"
           id="path26"
           d="M 76.487,270.546 C 77.488,267.842 78.736,265.939 83.73,265.939 C 87.251,265.939 90.214,268.251 91.093,271.395 C 89.863,272.049 78.453,271.529 76.487,270.546 Z" /><path
           style="fill:#121212;fill-opacity:1"
           inkscape:connector-curvature="0"
           id="path28"
           d="M 92.797,271.001 C 93.641,273.937 91.582,274 91.582,274 C 80.364,274 80.216,274 76.548,274 C 76.548,274 75.746,273.139 76.534,270.377 C 76.671,270.571 82.242,271.058 86.539,271.09 C 91.094,271.123 91.6,271.562 92.797,271.001 Z" /><path
           style="fill:#7b7b7b;fill-opacity:1"
           inkscape:connector-curvature="0"
           id="path30"
           d="M 91.447,271.574 C 91.125,271.574 90.751,271.55 90.275,271.518 C 89.442,271.466 88.299,271.393 86.537,271.378 C 84.615,271.364 82.215,271.256 79.955,271.083 C 76.487,270.816 76.382,270.665 76.299,270.543 L 76.771,270.211 C 76.73,270.152 76.683,270.133 76.681,270.132 C 77.088,270.296 82.244,270.768 86.543,270.8 C 88.321,270.814 89.472,270.887 90.313,270.941 C 91.583,271.024 92.009,271.05 92.674,270.737 L 92.92,271.262 C 92.412,271.502 92.009,271.574 91.447,271.574 Z" /></g><path
         inkscape:connector-curvature="0"
         style="fill:#574d4f;fill-opacity:1"
         d="M 24.142578,133.07031 C 24.142578,133.07031 23.14225,136.90083 22.78125,138.42383 C 22.41825,139.95083 21.835094,139.53144 20.996094,145.52344 C 20.996094,145.52344 18.868594,153.94712 20.183594,177.20312 C 20.708594,186.47913 21.808594,193.04297 21.808594,193.04297 C 21.808594,193.04297 20.88425,192.63325 20.78125,194.15625 C 20.68025,195.67725 21.808594,195.89453 21.808594,195.89453 C 21.808594,195.89453 20.746375,196.04091 21.359375,198.50391 C 21.971375,200.96791 21.70025,202.05577 20.78125,202.63477 C 19.86525,203.21477 20.54625,203.35972 20.78125,204.01172 C 21.01925,204.66372 21.83525,205.45906 20.78125,206.03906 C 19.72825,206.61906 19.848906,206.8373 19.753906,207.7793 C 19.659906,208.7223 20.746484,208.06817 20.271484,208.57617 C 19.797484,209.08317 20.11,209.15513 19.75,209.95312 C 19.39,210.75012 17.825531,215.09833 17.894531,224.73633 C 17.962531,234.37333 16.263906,236.03933 16.128906,241.11133 C 15.991906,246.18233 16.633906,246.54528 16.128906,248.86328 C 15.620906,251.18328 14.972234,252.27077 15.115234,254.00977 C 15.260234,255.74877 15.912359,257.19863 15.693359,258.14062 C 15.477359,259.08263 15.09375,260.45898 15.09375,260.45898 C 15.09375,260.45898 17.501141,259.80698 20.244141,260.45898 C 22.992141,261.11098 26.698781,262.70434 27.925781,262.77734 C 29.154781,262.84934 28.938359,261.25619 29.443359,260.24219 C 29.950359,259.22819 29.805359,257.63314 29.443359,256.61914 C 29.083359,255.60414 29.950078,253.28494 30.455078,251.83594 C 30.960078,250.38694 31.396547,243.35881 31.685547,241.25781 C 31.974547,239.15681 34.719547,224.66387 34.935547,220.17188 C 35.152547,215.67988 34.648625,211.04138 35.515625,208.35938 C 36.381625,205.67837 37.972891,205.82362 38.837891,196.76562 C 39.705891,187.70763 42.234625,174.01275 43.390625,170.96875 C 44.465302,168.13982 44.210571,164.12396 45.679688,163.92188 C 45.849312,163.95588 46.149469,164.09648 46.667969,164.52148 C 50.516969,167.67048 55.8865,178.94108 57.1875,184.95508 C 58.4875,190.96908 63.214,206.40392 64.875,208.79492 C 66.537,211.18592 66.825953,208.93825 68.126953,219.15625 C 69.426953,229.37225 70.726422,231.40217 71.232422,233.57617 C 71.739422,235.75017 73.83425,248.86405 73.90625,249.37305 C 73.97825,249.88005 75.351297,251.11013 75.279297,251.32812 C 75.207297,251.54612 75.786906,255.6045 76.003906,258.9375 C 76.219906,262.2695 78.820312,265.31445 78.820312,265.31445 C 78.820312,265.31445 81.808937,263.3578 85.710938,262.3418 C 89.612938,261.3278 90.984375,263.86328 90.984375,263.86328 C 90.984375,263.86328 91.7785,262.92019 91.5625,261.61719 C 91.3455,260.31219 90.84225,259.51695 90.40625,258.50195 C 89.97325,257.48795 90.189391,254.22642 89.900391,253.35742 C 89.612391,252.48842 89.105469,249.88086 89.105469,249.88086 C 89.105469,249.88086 89.178469,246.54712 89.105469,244.95312 C 89.034469,243.35912 89.035699,242.19933 88.095703,239.73633 C 87.155703,237.27233 86.866547,227.19905 85.060547,219.37305 C 83.252547,211.54705 82.386703,210.67934 82.095703,210.02734 C 81.807703,209.37334 81.591531,208.65003 81.519531,207.70703 C 81.448531,206.76503 81.159609,207.12783 80.724609,206.54883 C 80.290609,205.96883 80.506062,205.60533 80.289062,204.73633 C 80.074063,203.86633 79.930562,203.9395 79.351562,202.5625 C 78.774563,201.1855 78.556906,197.56289 78.628906,196.83789 C 78.701906,196.11189 77.833594,195.82239 77.683594,195.02539 C 77.530594,194.22839 77.111594,192.27308 77.183594,191.33008 C 77.255594,190.38808 78.267594,189.88163 77.183594,186.76562 C 76.099594,183.64962 77.301891,168.64988 75.087891,160.17188 C 71.073829,144.78747 70.191817,133.07969 70.191406,133.07422 H 53.195312 C 53.195312,133.07421 53.195312,133.07022 53.195312,133.07022 H 24.142578 Z"
         id="path74" /></g><path
       sodipodi:nodetypes="cczcccscsccccsccczcccccccccc"
       inkscape:connector-curvature="0"
       id="path88"
       d="M 314.75274,312.89284 L 240.77359,336.90946 C 223.60713,357.68207 165.76191,450.99232 175.52642,485.13934 C 185.29094,519.28635 184.47742,491.61872 184.47742,491.61872 L 220.83449,485.71266 C 220.83449,485.71266 214.53426,496.70159 220.29876,475.8538 C 225.87254,479.34941 237.41665,462.48285 244.56507,450.72275 C 254.0017,435.19824 259.35753,418.72788 260.38381,418.85851 C 260.41001,408.79613 255.24989,429.44014 265.23181,465.39833 C 276.98527,507.7382 270.29649,595.3191 269.75465,616.99917 C 269.75465,616.99917 288.664,659.24154 357.31735,659.39631 V 659.52415 C 426.26642,659.52415 446.82289,616.06582 446.82289,616.06582 C 443.58518,589.28967 430.89933,510.82877 440.80329,469.76046 C 441.46478,467.01751 440.80329,469.76046 444.65955,457.98559 C 439.29572,460.50772 448.16346,487.56305 448.16346,487.56305 L 497.78907,488.97102 C 497.78907,488.97102 500.83192,453.0112 497.93447,427.28035 C 495.03703,401.54949 491.33607,358.8587 475.68399,336.90946 C 475.23254,337.13716 474.44792,337.50436 473.94622,337.75352 L 474.21575,337.02295 L 399.26487,313.49573 L 377.32211,321.31766 L 368.75641,364.05275 L 359.86971,417.05948 L 342.98286,366.93558 L 337.65161,320.66355 Z"
       style="fill:#93bbd3;fill-opacity:1" /><path
       inkscape:connector-curvature="0"
       id="polygon104"
       d="M 434.96576,459.66423 L 409.22705,472.19735 L 383.48833,459.66423 V 418.31694 H 434.96576 Z"
       style="fill:#669ec0;fill-opacity:1" /><path
       sodipodi:nodetypes="ccccccccccccccccc"
       inkscape:connector-curvature="0"
       id="rect108"
       d="M 377.4206,320.15288 L 372.90758,353.25155 L 365.36781,384.04191 L 365.37481,384.12701 C 364.682,386.57448 363.84615,389.83953 362.62985,395.24162 L 353.38068,438.24599 L 353.43748,438.20339 L 353.40188,438.28139 L 352.54363,659.14074 L 359.50178,659.05574 L 358.67192,433.62856 C 364.0122,407.87777 366.0877,400.14988 366.74366,396.87305 L 366.75066,396.95815 L 366.85706,396.34106 C 366.90146,396.10102 366.96601,395.75754 366.99183,395.56794 L 377.04959,337.97343 Z"
       style="fill:#669ec0;fill-opacity:1" /><path
       sodipodi:nodetypes="ccccccccc"
       id="rect108-9"
       d="M 341.35848,350.9242 L 347.05362,384.34978 L 347.04662,384.43488 C 347.73943,386.88235 348.57528,390.1474 349.79158,395.54949 L 361.79058,423.17512 C 361.79058,423.17512 358.9236,417.04289 346.99539,397.18098 C 343.41288,376.89898 338.95401,355.77771 337.74328,338.28138 L 337.60956,319.90187 C 341.05858,338.03818 340.42007,337.54543 341.35874,350.92418 Z"
       style="fill:#669ec0;fill-opacity:1"
       inkscape:connector-curvature="0" /><path
       sodipodi:nodetypes="czsccccc"
       inkscape:connector-curvature="0"
       id="polygon104-1"
       d="M 181.30116,504.85267 C 181.30116,504.85267 177.09819,499.29309 180.5106,486.66236 C 183.92301,474.03163 197.14679,465.51452 214.23153,472.1313 C 222.7739,475.4397 232.33553,475.71477 226.34532,490.06969 C 226.31772,495.10777 224.15486,499.31875 224.15486,499.31875 C 220.00093,492.33196 213.66608,483.90456 197.06233,493.87002 C 190.90888,497.5593 187.99591,511.21975 187.99591,511.21975 Z"
       style="fill:#669ec0;fill-opacity:1" /><path
       sodipodi:nodetypes="czsccccc"
       inkscape:connector-curvature="0"
       id="polygon104-1-2"
       d="M 445.64944,493.61747 C 445.64944,493.61747 443.08795,487.17676 451.08501,476.9655 C 459.08208,466.75432 476.11824,463.5948 492.04676,475.3821 C 500.01102,481.27571 510.10873,484.78523 498.76864,495.66989 C 496.99879,500.19734 493.24135,503.25244 493.24135,503.25244 C 491.22476,495.54304 487.38048,485.79223 466.2414,489.10313 C 458.40852,490.32657 450.58844,501.63555 450.58844,501.63555 Z"
       style="fill:#669ec0;fill-opacity:1" /><path
       sodipodi:nodetypes="cccczzc"
       d="M 400.51578,224.17376 C 400.51578,235.65316 396.46683,281.72081 385.27069,281.03808 C 374.16926,310.47665 344.499,310.7906 333.73812,280.54214 C 321.6704,278.99145 316.4303,236.57922 316.4303,225.0417 C 313.22096,256.41546 324.83003,289.16511 340.46949,301.06783 C 356.10894,312.97055 361.55583,313.26079 378.41229,301.06383 C 395.26874,288.86719 401.26138,254.26078 400.51578,224.17339 Z"
       id="path124"
       inkscape:connector-curvature="0"
       style="fill:#846558;fill-opacity:1" /><path
       sodipodi:nodetypes="czccccccczzccccczcccc"
       inkscape:connector-curvature="0"
       id="path126"
       d="M 324.90311,148.29144 C 327.93206,148.35084 354.59004,145.88087 363.73336,149.89528 C 372.87667,153.90968 371.53974,154.30323 377.09257,158.73823 C 376.20729,156.11538 376.97669,158.33018 375.22461,155.8466 C 381.6071,158.83085 390.78101,163.07459 392.8146,173.90918 C 398.20636,178.34171 400.02653,180.74331 403.45371,189.43831 L 401.32583,225.03608 L 396.50073,200.24027 C 396.50073,200.24027 390.48445,194.96344 389.24437,189.79654 C 384.09121,190.21973 370.17467,184.43533 365.91923,186.70765 C 361.6638,188.97997 359.36628,190.83506 353.21826,188.23905 C 347.07024,185.64305 345.75466,186.25637 338.98646,189.6102 C 334.26796,190.91433 322.78594,196.69988 322.78594,196.69988 L 316.29543,224.64081 L 314.59169,188.26846 L 306.26938,179.45471 C 306.26938,179.45471 307.42167,176.52149 311.94923,173.52958 C 316.47679,170.53767 319.31362,169.92649 319.31362,169.92649 C 314.57752,167.40779 314.06428,165.9252 309.45995,163.66992 C 316.96308,155.34521 324.87449,154.20952 328.68905,154.42585 C 326.05721,153.02948 325.8331,151.16712 324.90311,148.29144 Z"
       style="fill:#231f20" /><g
       style="fill:#846558;fill-opacity:1"
       transform="matrix(2.4717233,0,0,3.211597,294.93899,144.43928)"
       id="g4658"><path
         inkscape:connector-curvature="0"
         style="fill:#846558;fill-opacity:1"
         d="M 24.444605,36.851093 H 25.813806 L 25.42898,39.598222 C 22.555209,39.49505 19.750621,39.516442 18.389917,39.988402 C 19.164759,37.206956 23.514686,38.716809 24.444605,36.851093 Z"
         id="path124-3-6"
         sodipodi:nodetypes="ccccc" /><path
         inkscape:connector-curvature="0"
         style="fill:#846558;fill-opacity:1"
         d="M 28.084196,36.851093 H 26.714995 L 27.099821,39.598222 C 29.973592,39.49505 32.77818,39.516442 34.138884,39.988402 C 33.364042,37.206956 29.014115,38.716809 28.084196,36.851093 Z"
         id="path124-3-6-5"
         sodipodi:nodetypes="ccccc" /></g><g
       transform="matrix(3.6315747,0,0,3.6315747,187.83913,106.58109)"
       id="g4845"><g
         id="g32"><path
           style="fill:#393536"
           inkscape:connector-curvature="0"
           id="path34"
           d="M 22.006,126.887 C 21.943,126.848 14.319,122.593 10.234,125.508 C 6.15,128.423 1.035,139.348 0.271,153.029 C -0.33,163.747 2.806,163.568 2.806,163.568 C 2.806,163.568 5.655,140.454 8.004,135.556 C 13.67,123.736 21.252,129.605 21.252,129.605 Z" /><path
           style="fill:#231f20"
           inkscape:connector-curvature="0"
           id="path36"
           d="M 22.006,126.887 C 23.11,128.037 24.877,132.236 26.041,142.761 C 27.205,153.287 26.318,170.977 26.318,170.977 C 26.318,170.977 25.855,178.327 18.556,177.87 C 11.256,177.411 11.256,177.411 11.256,177.411 C 11.256,177.411 3.282,173.783 2.748,168.396 C 2.214,163.012 5.706,125.887 13.054,125.799 C 20.401,125.71 22.006,126.887 22.006,126.887 Z" /><g
           id="g38"><path
             style="fill:#231f20"
             inkscape:connector-curvature="0"
             id="path40"
             d="M 2.111,164.141 L 2.475,164.162 L 2.618,161.626 L 0.91,161.53 C 0.885,162.74 1.345,163.587 2.099,164.362 Z" /><path
             style="fill:#231f20"
             inkscape:connector-curvature="0"
             id="path42"
             d="M 1.505,159.841 C 1.237,159.825 1.032,159.598 1.048,159.329 L 1.193,156.748 C 1.207,156.479 1.437,156.275 1.702,156.29 L 2.476,156.333 L 2.683,152.641 C -0.371,152.47 0.911,161.307 0.911,161.307 L 2.633,161.404 L 2.715,159.91 Z" /><path
             style="fill:#231f20"
             inkscape:connector-curvature="0"
             id="path44"
             d="M 2.123,159.138 C 2.109,159.371 1.91,159.55 1.678,159.537 V 159.537 C 1.445,159.523 1.267,159.324 1.281,159.091 L 1.4,156.951 C 1.414,156.717 1.612,156.539 1.844,156.552 V 156.552 C 2.078,156.565 2.256,156.765 2.242,156.998 Z" /><rect
             style="fill:#231f20"
             id="rect46"
             height="7.2550001"
             width="0.43700001"
             transform="matrix(-0.9984,-0.0558,0.0558,-0.9984,-3.3343,312.4572)"
             y="152.64799"
             x="2.48" /></g><path
           style="fill:#393536"
           inkscape:connector-curvature="0"
           id="path48"
           d="M 5.928,148.419 L 24.503,149.463 L 23.785,174.319 C 23.02,176.011 11.362,177.985 6.653,173.413 C 1.943,168.84 5.928,148.419 5.928,148.419 Z" /><g
           id="g50"><path
             style="fill:#393536"
             inkscape:connector-curvature="0"
             id="path52"
             d="M 23.108,142.047 L 15.689,136.909 C 15.348,136.671 14.878,136.757 14.642,137.101 L 10.325,143.367 C 10.091,143.709 10.175,144.181 10.517,144.417 L 17.936,149.557 C 18.277,149.793 18.748,149.707 18.983,149.364 L 23.298,143.098 C 23.535,142.755 23.449,142.284 23.108,142.047 Z" /><path
             style="fill:#393536"
             inkscape:connector-curvature="0"
             id="path54"
             d="M 25.327,138.633 C 25.207,138.808 24.904,138.864 24.683,138.711 L 18.242,134.248 C 18.024,134.097 17.968,133.793 18.12,133.572 L 24.245,124.678 C 24.399,124.459 24.699,124.402 24.92,124.556 L 31.361,129.018 C 31.582,129.17 31.636,129.472 31.453,129.739 Z" /><path
             style="fill:#393536"
             inkscape:connector-curvature="0"
             id="path56"
             d="M 20.413,145.887 C 20.261,146.108 19.959,146.163 19.738,146.01 L 13.185,141.472 C 12.967,141.318 12.911,141.016 13.062,140.796 L 17.378,134.529 C 17.53,134.308 17.832,134.253 18.053,134.406 L 24.605,138.945 C 24.826,139.098 24.88,139.4 24.728,139.621 Z" /><g
             id="g58"><path
               style="fill:#393536"
               inkscape:connector-curvature="0"
               id="path60"
               d="M 26.102,138.355 L 25.714,138.087 L 21.026,144.891 L 21.417,145.162 C 21.637,145.313 21.938,145.258 22.089,145.038 L 26.228,139.031 C 26.377,138.81 26.322,138.508 26.102,138.355 Z" /><path
               style="fill:#393536"
               inkscape:connector-curvature="0"
               id="path62"
               d="M 18.083,132.78 L 18.473,133.05 L 13.785,139.855 L 13.397,139.585 C 13.176,139.432 13.12,139.13 13.272,138.909 L 17.411,132.904 C 17.562,132.684 17.862,132.627 18.083,132.78 Z" /></g><g
             id="g64"><path
               style="fill:#393536"
               inkscape:connector-curvature="0"
               id="path66"
               d="M 13.784,139.855 L 17.872,133.92 C 17.56,133.887 17.238,134.022 17.047,134.299 L 13.404,139.589 Z" /><path
               style="fill:#393536"
               inkscape:connector-curvature="0"
               id="path68"
               d="M 25.123,138.944 L 21.025,144.89 L 21.408,145.155 L 25.06,139.849 C 25.252,139.574 25.264,139.225 25.123,138.944 Z" /></g><path
             style="fill:#393536"
             inkscape:connector-curvature="0"
             id="path70"
             d="M 19.019,149.389 C 18.868,149.609 18.565,149.666 18.344,149.512 L 10.415,144.018 C 10.194,143.866 10.14,143.562 10.292,143.343 L 14.607,137.076 C 14.759,136.857 15.061,136.8 15.28,136.952 L 23.212,142.447 C 23.432,142.599 23.486,142.902 23.334,143.122 Z" /><rect
             style="fill:#393536"
             id="rect72"
             height="0.35699999"
             width="8.8719997"
             transform="matrix(0.822,0.5695,-0.5695,0.822,82.9,13.8344)"
             y="139.355"
             x="14.883" /></g></g><polygon
         style="fill:#393536"
         id="polygon140"
         points="18.564,132.809 68.731,59.199 76.556,61.454 22.006,139.258 " /></g><path
       sodipodi:nodetypes="cccccccccccccccccccccccccccccccccccccc"
       inkscape:connector-curvature="0"
       id="path138"
       d="M 188.89595,501.20274 L 188.76812,501.62124 C 187.52249,505.52518 187.4816,509.85079 188.9595,514.01257 C 189.57687,515.75573 190.44928,517.40915 191.19376,519.11236 L 193.51317,524.18381 L 198.15193,534.32669 L 207.42236,554.60533 L 212.06115,564.74821 L 214.38761,569.81963 L 215.54376,572.3589 L 216.11827,573.62146 C 216.22359,573.85751 216.31074,574.00077 216.41606,574.30946 L 216.6503,574.96202 L 220.64361,586.1972 C 221.39647,588.66024 222.21438,590.94919 223.09068,593.06313 L 224.08366,595.86485 L 224.11996,595.96395 C 224.63706,597.41397 225.42537,598.68339 226.34717,599.81542 C 238.73535,621.3471 258.7369,619.50382 272.98309,618.4698 C 272.98309,618.4698 278.34159,614.70862 276.68559,610.10015 C 276.68559,610.10015 267.38807,605.74008 258.29366,592.31822 L 257.47089,589.82151 C 257.32055,588.8018 257.42369,587.80025 257.61979,586.82829 L 263.86864,596.042 C 265.81879,598.90731 269.7065,599.63736 272.56455,597.70174 C 275.41171,595.75884 276.13849,591.84934 274.21013,589.00582 L 261.26553,569.95422 C 259.85716,567.85629 257.38108,566.90885 255.03796,567.31566 L 255.00166,567.21656 L 243.36217,570.55023 L 241.96489,566.32283 C 241.42742,564.6523 240.97303,562.78211 240.46828,561.02443 L 239.00003,555.66219 L 236.05646,544.95188 L 230.17643,523.51706 L 227.23286,512.79966 L 226.23276,509.16101 C 224.55712,500.71509 218.61775,468.23247 188.89574,501.20274 Z"
       style="fill:#a77660;fill-opacity:1" /><g
       transform="matrix(3.6315747,0,0,3.6315747,187.83913,106.58109)"
       id="g4889"><g
         id="g156"><path
           d="M 50.393,107.187 L 51.277,125.241 C 51.372,125.852 49.672,126.628 47.482,126.971 C 45.288,127.312 43.435,127.097 43.339,126.484 L 38.692,109.02 Z"
           id="path158"
           inkscape:connector-curvature="0"
           style="fill:#ffffff" /><path
           d="M 41.414,117.689 C 41.026,115.192 42.73,112.851 45.219,112.46 C 47.709,112.069 50.042,113.777 50.434,116.275 C 50.822,118.774 49.12,121.114 46.629,121.504 C 44.137,121.893 41.805,120.186 41.414,117.689 Z"
           id="path160"
           inkscape:connector-curvature="0"
           style="fill:#7fb860" /><polygon
           points="38.691,109.02 38.959,110.022 50.41,107.634 50.393,107.187 "
           id="polygon162"
           style="fill:#d1d3d4" /><path
           d="M 38.228,108.747 L 38.101,107.926 L 38.967,107.791 L 38.848,106.481 C 38.807,106.227 41.153,105.649 44.088,105.189 C 47.019,104.731 49.43,104.563 49.469,104.816 L 49.753,106.1 L 50.621,105.965 L 50.748,106.785 L 51.005,107.089 L 38.075,109.114 Z"
           id="path164"
           inkscape:connector-curvature="0"
           style="fill:#ffffff" /></g><path
         style="fill:#a77660;fill-opacity:1"
         d="M 72.09375,109.69727 L 53.330078,117.31836 C 53.103451,116.44164 52.865265,115.63078 52.626953,114.89844 C 52.626572,114.89744 52.627334,114.89544 52.626953,114.89444 C 52.603093,114.67932 52.533843,114.47345 52.429688,114.28702 C 52.428188,114.28302 52.427188,114.27702 52.425788,114.27332 C 52.424388,114.27363 52.423288,114.27301 52.421888,114.27332 C 52.224394,113.92774 51.901133,113.65357 51.490247,113.53113 C 50.643247,113.28013 49.748966,113.76316 49.501966,114.61316 C 49.501966,114.61316 49.480126,114.83585 49.478526,114.85144 C 46.484191,115.3315 45.257314,115.12439 43.871104,115.24597 C 43.848174,115.24197 43.830064,115.22737 43.806654,115.22447 L 39.423841,114.67759 C 38.768841,114.59659 38.16595,115.06452 38.085951,115.72252 C 38.008951,116.38452 38.473826,116.98322 39.132825,117.06822 L 43.013685,117.55064 C 43.029155,117.77624 43.055135,118.00414 43.091815,118.23424 L 40.455096,117.98619 C 39.804096,117.90619 39.199159,118.37406 39.119159,119.03306 C 39.041159,119.69406 39.505081,120.29377 40.16408,120.37877 L 40.296893,120.39047 C 39.908056,120.54971 39.605702,120.89497 39.552752,121.34165 C 39.472752,122.00465 39.940627,122.6014 40.599627,122.6854 L 42.744159,122.95297 C 42.812039,123.1435 42.877205,123.34195 42.970721,123.56626 L 41.79494,123.85532 C 41.15594,124.01132 40.756081,124.6674 40.91408,125.3104 C 41.07608,125.9564 41.726112,126.35021 42.371112,126.19321 L 44.255877,125.73032 C 44.80269,126.02882 45.510331,126.03817 46.339862,125.79482 L 49.334002,125.25576 C 50.940651,125.24486 52.865297,124.99821 54.392596,124.44521 C 56.987554,124.08749 81.028018,120.7725 81.615252,120.67763 C 84.199654,118.20929 84.27621,110.4898 84.271502,109.12295 V 109.11895 C 84.279402,109.06065 84.269902,109.02055 84.273502,108.96661 C 84.272988,108.90211 84.277402,108.60333 84.277402,108.60333 H 84.275402 C 85.176458,105.24173 73.609241,102.16039 72.093761,109.69708 Z"
         id="path154"
         inkscape:connector-curvature="0"
         sodipodi:nodetypes="ccccccccccccccccccccccccccccccccccccccc" /></g><path
       sodipodi:nodetypes="cccccc"
       inkscape:connector-curvature="0"
       id="polygon94"
       d="M 392.86963,348.00384 L 376.95044,320.26965 L 387.28884,302.52527 L 387.32514,294.95344 L 405.58806,312.03136 Z"
       style="fill:#669ec0;fill-opacity:1" /><path
       sodipodi:nodetypes="cccccc"
       inkscape:connector-curvature="0"
       id="polygon94-2"
       d="M 321.89193,348.00383 L 337.81112,320.26965 L 327.47272,302.52527 L 327.43642,294.95344 L 309.1735,312.03135 Z"
       style="fill:#669ec0;fill-opacity:1" /><path
       sodipodi:nodetypes="zczcz"
       id="path124-3-6-0"
       d="M 345.34526,215.35697 C 350.56038,216.83334 350.65079,216.12662 352.13251,216.29402 C 352.11161,217.45703 352.03701,219.06902 349.98807,219.37657 C 347.9391,219.6841 323.66677,215.86599 320.30349,217.87462 C 324.38419,209.55084 340.13015,213.8806 345.34526,215.35697 Z"
       style="fill:#614a41;fill-opacity:1"
       inkscape:connector-curvature="0" /><path
       sodipodi:nodetypes="cccc"
       id="path124-3-6-5-9"
       d="M 364.45377,285.05374 L 356.51499,284.94427 C 356.71376,289.79354 357.7057,287.88685 360.4768,290.63142 C 363.71494,287.77176 364.45377,289.44634 364.45377,285.05374 Z"
       style="fill:#846558;fill-opacity:1"
       inkscape:connector-curvature="0" /><path
       sodipodi:nodetypes="sczcss"
       id="path124-3-6-0-3"
       d="M 372.56208,213.9995 C 367.62666,216.232 366.54944,215.71595 365.06772,215.85556 C 365.08862,216.8255 365.69355,218.36528 367.74249,218.62177 C 369.79146,218.87826 385.50837,209.34682 396.89674,217.17377 C 394.85639,213.70276 390.60683,209.15791 385.50837,209.34682 C 380.4099,209.53573 375.4348,212.70004 372.56208,213.9995 Z"
       style="fill:#614a41;fill-opacity:1"
       inkscape:connector-curvature="0" /><path
       id="svg_7"
       d="M 384.4053,216.57134 C 377.23961,216.61804 370.33433,218.80224 363.30072,219.67564 C 360.36517,220.04018 357.33977,220.1296 354.39929,219.79066 C 350.48962,219.33983 346.70447,218.14273 342.79748,217.60606 C 339.30569,217.12674 335.7705,216.62597 332.25693,216.60606 C 326.11671,216.57046 320.17831,218.44518 314.15898,219.45742 C 314.15898,221.17422 313.80116,223.37812 314.70116,224.58504 C 315.62949,225.82968 317.19547,226.96796 317.60161,228.65479 C 318.56477,232.65516 319.93232,236.57642 321.68096,240.33575 C 322.53074,242.1626 324.1344,243.4363 325.9255,244.31367 C 330.23824,246.42648 335.34258,246.73708 340.0738,246.0728 C 346.81156,245.12663 350.46689,240.19699 353.25557,234.56426 C 354.29942,232.27464 354.41577,229.63206 355.7905,227.5395 C 356.60693,226.29671 358.50301,226.81985 359.85784,226.81523 C 361.21305,226.81023 362.36167,229.00844 362.78203,230.47134 C 364.27027,235.64845 366.75176,241.14116 371.68365,243.85365 C 379.04832,247.90463 390.65109,247.14688 395.42947,239.84131 C 397.2996,236.98197 397.81602,233.51301 398.7541,230.27592 C 399.32531,228.30516 399.83585,225.95554 401.86686,224.87228 C 402.6865,224.43489 402.11134,222.6903 402.23225,221.67603 C 402.36407,220.57122 402.61847,219.59358 401.00609,219.37681 C 398.19391,218.99802 395.46606,217.84659 392.58791,217.4568 C 389.86043,217.08733 387.18829,216.55341 384.4053,216.57134 Z M 337.03191,218.41086 C 339.06615,218.39926 341.09148,218.54356 343.06868,218.95128 C 354.84843,221.38087 355.08645,226.11361 350.23719,235.89797 C 346.28565,243.87057 338.1,245.86818 329.85183,243.95725 C 326.04943,243.07639 323.44969,240.48828 322.22334,236.94424 C 320.92916,233.2035 319.95014,229.22927 320.17186,225.29752 C 320.46881,220.03282 326.57551,219.29292 330.94815,218.81328 C 332.95472,218.59324 334.99787,218.42348 337.03191,218.41086 Z M 380.04288,218.41086 C 382.07712,218.42246 384.12027,218.59324 386.12685,218.81328 C 390.49929,219.29292 396.60653,220.03282 396.90313,225.29752 C 397.12469,229.22927 396.14584,233.2035 394.85146,236.94424 C 393.62532,240.48828 391.02538,243.07639 387.22317,243.95725 C 378.97536,245.86818 370.78952,243.87055 366.83761,235.89797 C 361.98835,226.11361 362.22675,221.38087 374.00652,218.95128 C 375.98352,218.54354 378.00885,218.39844 380.04288,218.41086 Z"
       inkscape:connector-curvature="0"
       style="fill:#191d2a;fill-opacity:1;stroke:#191d2a;stroke-width:0.46177268;stroke-miterlimit:4;stroke-dasharray:none;stroke-opacity:1" /></g></svg>