<?xml version="1.0" encoding="UTF-8" standalone="no"?>
<!-- Generator: Adobe Illustrator 16.0.4, SVG Export Plug-In . SVG Version: 6.00 Build 0)  -->

<svg
   xmlns:dc="http://purl.org/dc/elements/1.1/"
   xmlns:cc="http://creativecommons.org/ns#"
   xmlns:rdf="http://www.w3.org/1999/02/22-rdf-syntax-ns#"
   xmlns:svg="http://www.w3.org/2000/svg"
   xmlns="http://www.w3.org/2000/svg"
   xmlns:sodipodi="http://sodipodi.sourceforge.net/DTD/sodipodi-0.dtd"
   xmlns:inkscape="http://www.inkscape.org/namespaces/inkscape"
   version="1.1"
   x="0px"
   y="0px"
   width="720"
   height="720"
   viewBox="0 0 720 720"
   enable-background="new 0 0 93 274"
   xml:space="preserve"
   id="svg2"
   inkscape:version="0.91 r13725"
   sodipodi:docname="avatar-mugshot.svg"
   inkscape:export-filename="/home/huntingbears/Escritorio/avatar-mugshot.svg.png"
   inkscape:export-xdpi="90"
   inkscape:export-ydpi="90"><metadata
     id="metadata186"><rdf:RDF><cc:Work
         rdf:about=""><dc:format>image/svg+xml</dc:format><dc:type
           rdf:resource="http://purl.org/dc/dcmitype/StillImage" /><dc:title></dc:title></cc:Work></rdf:RDF></metadata><defs
     id="defs184" /><sodipodi:namedview
     pagecolor="#f8d983"
     bordercolor="#666666"
     borderopacity="1"
     objecttolerance="10"
     gridtolerance="10"
     guidetolerance="10"
     inkscape:pageopacity="1"
     inkscape:pageshadow="2"
     inkscape:window-width="1600"
     inkscape:window-height="873"
     id="namedview182"
     showgrid="false"
     inkscape:zoom="0.35355339"
     inkscape:cx="514.14535"
     inkscape:cy="-36.162443"
     inkscape:window-x="0"
     inkscape:window-y="27"
     inkscape:window-maximized="1"
     inkscape:current-layer="svg2"
     showguides="false"><sodipodi:guide
       position="-23.075212,206.66102"
       orientation="1,0"
       id="guide4818" /></sodipodi:namedview><g
     id="BASEMENT"
     transform="translate(0,446)" /><g
     id="BG"
     transform="translate(0,446)" /><g
     id="LAYOUT"
     transform="translate(0,446)" /><g
     id="SPRITE_B"
     transform="translate(0,446)" /><g
     id="MENU"
     transform="translate(0,446)" /><path
     sodipodi:nodetypes="sscccccccscccccccccscccccccss"
     inkscape:connector-curvature="0"
     style="fill:#a77660;fill-opacity:1;stroke:none"
     d="m 379.1041,47.810525 c -41.77906,0 -75.64473,43.788294 -75.64473,60.490045 0,9.20903 -0.98113,35.62082 -1.26181,61.08232 -0.44157,-1.65105 -2.41731,-8.85578 -4.68676,-11.09886 -2.54045,-2.51345 -6.01295,2.24037 -6.01295,2.24037 0,0 -1.8362,20.61 -1.00431,28.45529 0.82193,7.85318 9.116,27.88878 9.116,27.88878 l 3.63094,-0.0646 -0.0514,-3.56657 c 0.21517,2.30991 0.39488,4.82692 0.69527,6.52798 2.29034,12.96867 9.84007,36.37774 17.69123,56.74319 l 0.47833,57.52448 18.63986,21.8254 17.99031,134.18138 20.50172,39.40532 27.91636,-116.30249 5.82952,-57.71977 17.6456,-23.78167 0.95673,-45.52737 c 8.84976,-22.59391 16.88582,-51.86087 19.85433,-65.62744 0.47757,-2.21471 0.8729,-5.33871 1.21032,-8.97436 l -0.0773,5.29192 3.63094,0.0646 c 0,0 8.29408,-20.0356 9.11601,-27.88878 0.83182,-7.84529 -1.01727,-28.45529 -1.01727,-28.45529 0,0 -3.45962,-4.75382 -6.00008,-2.24037 -1.72672,1.70666 -3.10805,5.85991 -4.01722,8.89711 0.29844,-24.50415 0.13833,-49.47656 0.51507,-58.88057 0.72084,-17.998157 -33.86567,-60.490045 -75.64476,-60.490045 z"
     id="path118-3" /><path
     style="fill:#93bbd3;fill-opacity:1"
     d="m 299.05363,328.89405 -134.29355,43.5971 C 133.598,410.19945 28.592198,579.58453 46.317607,641.57124 64.043034,703.55793 62.56626,653.33319 62.56626,653.33319 l 65.99859,-10.72121 c 0,0 -11.43674,19.94809 -0.9725,-17.89668 10.11802,6.34554 31.07392,-24.27214 44.05037,-45.62012 17.13021,-28.18147 26.85259,-58.07994 28.71558,-57.84281 0.0476,-18.26613 -9.31955,19.20872 8.80052,84.48323 21.33593,76.8591 9.19386,235.84376 8.21027,275.19935 0,0 34.32593,76.68212 158.95161,76.96307 l 0,0.23206 c 125.1625,0 162.47843,-78.88943 162.47843,-78.88943 -5.87738,-48.60645 -28.90586,-191.03567 -10.92731,-265.58652 1.20079,-4.97925 0,0 7.00022,-21.3748 -9.7369,4.5784 6.36061,53.69164 6.36061,53.69164 l 90.08483,2.55588 c 0,0 5.52366,-65.27747 0.26395,-111.9864 -5.2597,-46.70895 -11.97801,-124.20508 -40.39106,-164.0493 -0.81951,0.41335 -2.24382,1.07992 -3.15455,1.53222 l 0.48927,-1.3262 -136.05751,-42.7087 -39.83246,14.19906 -15.54922,77.57654 -16.13193,96.22254 -30.65451,-90.98937 -9.67776,-83.99711 z"
     id="path88"
     inkscape:connector-curvature="0"
     sodipodi:nodetypes="cczcccscsccccsccczcccccccccc" /><path
     style="fill:#669ec0;fill-opacity:1"
     d="m 517.27501,595.32655 -46.7232,22.75124 -46.72321,-22.75124 0,-75.05728 93.44641,0 z"
     id="polygon104"
     inkscape:connector-curvature="0" /><path
     style="fill:#669ec0;fill-opacity:1"
     d="m 412.81391,342.07312 -8.19243,60.08365 -13.68687,55.89341 0.0127,0.15448 c -1.25765,4.44286 -2.77496,10.36987 -4.9829,20.17623 l -16.78991,78.06536 0.1031,-0.0773 -0.0646,0.14159 -1.55797,400.92357 12.63105,-0.15429 -1.50643,-409.21551 c 9.69415,-46.74513 13.46178,-60.77348 14.65254,-66.72187 l 0.0127,0.15448 0.19314,-1.1202 c 0.0806,-0.43574 0.19778,-1.05926 0.24465,-1.40344 l 18.25774,-104.55068 z"
     id="rect108"
     inkscape:connector-curvature="0"
     sodipodi:nodetypes="ccccccccccccccccc" /><path
     inkscape:connector-curvature="0"
     style="fill:#669ec0;fill-opacity:1"
     d="m 347.35074,397.93196 10.33832,60.67709 -0.0127,0.15448 c 1.25765,4.44287 2.77496,10.36988 4.98289,20.17623 l 21.78166,50.14851 c 0,0 -5.2044,-11.13177 -26.85755,-47.18688 -6.50329,-36.8177 -14.59743,-75.15891 -16.79526,-106.9198 l -0.24274,-33.36413 c 6.26097,32.92265 5.10189,32.02816 6.80585,56.31446 z"
     id="rect108-9"
     sodipodi:nodetypes="ccccccccc" /><path
     style="fill:#669ec0;fill-opacity:1"
     d="m 56.80043,677.35663 c 0,0 -7.629606,-10.09224 -1.435095,-33.02067 6.19451,-22.92843 30.199494,-38.38944 61.213235,-26.37807 15.50687,6.0057 32.864,6.50503 21.99003,32.56336 -0.0501,9.14557 -3.97632,16.78972 -3.97632,16.78972 -7.54058,-12.68305 -19.04016,-27.98121 -49.18077,-9.89102 -11.170291,6.69711 -16.458174,31.49477 -16.458174,31.49477 z"
     id="polygon104-1"
     inkscape:connector-curvature="0"
     sodipodi:nodetypes="czsccccc" /><path
     style="fill:#669ec0;fill-opacity:1"
     d="m 536.66898,656.9615 c 0,0 -4.64984,-11.69175 9.86713,-30.22814 14.517,-18.53625 45.44255,-24.27169 74.35742,-2.87433 14.45743,10.6986 32.7877,17.0694 12.20216,36.8282 -3.21279,8.21863 -10.03363,13.76452 -10.03363,13.76452 -3.6607,-13.99479 -10.63918,-31.69533 -49.01272,-25.68509 -14.21894,2.2209 -28.41465,22.74997 -28.41465,22.74997 z"
     id="polygon104-1-2"
     inkscape:connector-curvature="0"
     sodipodi:nodetypes="czsccccc" /><path
     style="fill:#846558;fill-opacity:1"
     inkscape:connector-curvature="0"
     id="path124"
     d="m 454.73834,167.84327 c 0,20.83843 -7.35001,104.46453 -27.67425,103.22518 -20.1523,53.43951 -74.0124,54.00942 -93.54651,-0.90028 -21.9064,-2.81495 -31.4187,-79.80541 -31.4187,-100.74934 -5.82588,56.95244 15.24794,116.40253 43.63808,138.0094 28.39013,21.60688 38.27781,22.13375 68.87716,-0.007 30.59933,-22.14042 41.4777,-84.96106 40.12422,-139.57837 z"
     sodipodi:nodetypes="cccczzc" /><path
     style="fill:#231f20"
     d="m 317.47948,30.094919 c 5.49842,0.107828 53.89036,-4.375882 70.48813,2.911433 16.59775,7.287296 14.17084,8.001704 24.25083,16.052511 -1.60704,-4.761231 -0.21035,-0.740729 -3.39089,-5.249145 11.58607,5.417277 28.23937,13.120892 31.93092,32.788805 9.7876,8.046323 13.09174,12.405922 19.31306,28.189857 l -3.86272,64.62025 -8.75895,-45.01157 c 0,0 -10.92128,-9.57897 -13.17239,-18.95839 -9.35447,0.76822 -34.61702,-9.732142 -42.34187,-5.607224 -7.72484,4.124914 -11.8955,7.492444 -23.05593,2.779934 -11.16044,-4.712491 -13.54859,-3.599138 -25.83483,2.48903 -8.56545,2.36738 -29.40863,12.86982 -29.40863,12.86982 l -11.78215,50.72087 -3.09278,-66.02633 -15.1074,-15.999507 c 0,0 2.09174,-5.324642 10.31057,-10.755824 8.21883,-5.431182 13.36849,-6.54065 13.36849,-6.54065 -8.59739,-4.572169 -9.52907,-7.263498 -17.88726,-11.357483 13.62035,-15.111756 27.98185,-17.173361 34.90638,-16.78066 -4.77755,-2.534815 -5.18438,-5.915537 -6.87258,-11.135727 z"
     id="path126"
     inkscape:connector-curvature="0"
     sodipodi:nodetypes="czccccccczzccccczcccc" /><g
     id="g4658"
     transform="matrix(4.4868924,0,0,5.829977,263.08594,23.102135)"
     style="fill:#846558;fill-opacity:1"><path
       sodipodi:nodetypes="ccccc"
       id="path124-3-6"
       d="m 24.444605,36.851093 1.369201,0 -0.384826,2.747129 c -2.873771,-0.103172 -5.678359,-0.08178 -7.039063,0.39018 0.774842,-2.781446 5.124769,-1.271593 6.054688,-3.137309 z"
       style="fill:#846558;fill-opacity:1"
       inkscape:connector-curvature="0" /><path
       sodipodi:nodetypes="ccccc"
       id="path124-3-6-5"
       d="m 28.084196,36.851093 -1.369201,0 0.384826,2.747129 c 2.873771,-0.103172 5.678359,-0.08178 7.039063,0.39018 -0.774842,-2.781446 -5.124769,-1.271593 -6.054688,-3.137309 z"
       style="fill:#846558;fill-opacity:1"
       inkscape:connector-curvature="0" /></g><path
     style="fill:#a77660;fill-opacity:1"
     d="m 70.587169,670.73095 -0.232048,0.7597 c -2.261179,7.08678 -2.335406,14.93902 0.34741,22.49385 1.120705,3.16434 2.704381,6.16577 4.055828,9.25759 l 4.210399,9.20615 8.420691,18.41226 16.828511,36.81159 8.42074,18.41226 4.2232,9.2061 2.09875,4.60951 1.0429,2.29191 c 0.19119,0.4285 0.34939,0.68856 0.54057,1.24892 l 0.42522,1.18458 7.24901,20.3951 c 1.36666,4.47113 2.8514,8.62624 4.44214,12.46365 l 1.80255,5.08593 0.0659,0.1799 c 0.93869,2.6322 2.3697,4.93657 4.04303,6.99153 22.48813,39.08622 58.79672,35.74014 84.65768,33.86309 0,0 9.72722,-6.82763 6.72111,-15.19333 0,0 -16.87769,-7.91479 -33.38667,-32.27935 l -1.49357,-4.53225 c -0.27291,-1.85107 -0.0857,-3.66917 0.2703,-5.43356 l 11.34347,16.72555 c 3.54008,5.20137 10.5974,6.52662 15.78559,3.01291 5.16842,-3.52693 6.48773,-10.6238 2.9872,-15.78561 l -23.49819,-34.58416 c -2.5566,-3.80835 -7.0514,-5.52823 -11.30484,-4.78975 l -0.0659,-0.1799 -21.12904,6.05158 -2.53646,-7.67396 c -0.97567,-3.03249 -1.80052,-6.42743 -2.71678,-9.61812 l -2.6653,-9.73402 -5.34343,-19.44231 -10.67396,-38.91039 -5.34343,-19.45518 -1.81547,-6.6052 C 135.3225,669.84573 124.54083,610.88038 70.586788,670.73095 Z"
     id="path138"
     inkscape:connector-curvature="0"
     sodipodi:nodetypes="cccccccccccccccccccccccccccccccccccccc" /><g
     id="g4889"
     transform="matrix(6.592358,0,0,6.592358,68.668735,-45.621425)"><g
       id="g156"><path
         style="fill:#ffffff"
         inkscape:connector-curvature="0"
         id="path158"
         d="m 50.393,107.187 0.884,18.054 c 0.095,0.611 -1.605,1.387 -3.795,1.73 -2.194,0.341 -4.047,0.126 -4.143,-0.487 l -4.647,-17.464 11.701,-1.833 z" /><path
         style="fill:#7fb860"
         inkscape:connector-curvature="0"
         id="path160"
         d="m 41.414,117.689 c -0.388,-2.497 1.316,-4.838 3.805,-5.229 2.49,-0.391 4.823,1.317 5.215,3.815 0.388,2.499 -1.314,4.839 -3.805,5.229 -2.492,0.389 -4.824,-1.318 -5.215,-3.815 z" /><polygon
         style="fill:#d1d3d4"
         id="polygon162"
         points="38.691,109.02 38.959,110.022 50.41,107.634 50.393,107.187 " /><path
         style="fill:#ffffff"
         inkscape:connector-curvature="0"
         id="path164"
         d="m 38.228,108.747 -0.127,-0.821 0.866,-0.135 -0.119,-1.31 c -0.041,-0.254 2.305,-0.832 5.24,-1.292 2.931,-0.458 5.342,-0.626 5.381,-0.373 l 0.284,1.284 0.868,-0.135 0.127,0.82 0.257,0.304 -12.93,2.025 0.153,-0.367 z" /></g><path
       sodipodi:nodetypes="ccccccccccccccccccccccccccccccccccccccc"
       inkscape:connector-curvature="0"
       id="path154"
       d="m 72.09375,109.69727 -18.763672,7.62109 c -0.226627,-0.87672 -0.464813,-1.68758 -0.703125,-2.41992 -3.81e-4,-10e-4 3.81e-4,-0.003 0,-0.004 -0.02386,-0.21512 -0.09311,-0.42099 -0.197265,-0.60742 -0.0015,-0.004 -0.0025,-0.01 -0.0039,-0.0137 -0.0014,3.1e-4 -0.0025,-3.1e-4 -0.0039,0 -0.197494,-0.34558 -0.520755,-0.61975 -0.931641,-0.74219 -0.847,-0.251 -1.741281,0.23203 -1.988281,1.08203 0,0 -0.02184,0.22269 -0.02344,0.23828 -2.994335,0.48006 -4.221212,0.27295 -5.607422,0.39453 -0.02293,-0.004 -0.04104,-0.0186 -0.06445,-0.0215 l -4.382813,-0.54688 c -0.655,-0.081 -1.257891,0.38693 -1.33789,1.04493 -0.077,0.662 0.387875,1.2607 1.046874,1.3457 l 3.88086,0.48242 c 0.01547,0.2256 0.04145,0.4535 0.07813,0.6836 l -2.636719,-0.24805 c -0.651,-0.08 -1.255937,0.38787 -1.335937,1.04687 -0.078,0.661 0.385922,1.26071 1.044921,1.34571 l 0.132813,0.0117 c -0.388837,0.15924 -0.691191,0.5045 -0.744141,0.95118 -0.08,0.663 0.387875,1.25975 1.046875,1.34375 l 2.144532,0.26757 c 0.06788,0.19053 0.133046,0.38898 0.226562,0.61329 l -1.175781,0.28906 c -0.639,0.156 -1.038859,0.81208 -0.88086,1.45508 0.162,0.646 0.812032,1.03981 1.457032,0.88281 l 1.884765,-0.46289 c 0.546813,0.2985 1.254454,0.30785 2.083985,0.0645 l 2.99414,-0.53906 c 1.606649,-0.0109 3.531295,-0.25755 5.058594,-0.81055 2.594958,-0.35772 26.635422,-3.67271 27.222656,-3.76758 2.584402,-2.46834 2.660958,-10.18783 2.65625,-11.55468 l 0,-0.004 c 0.0079,-0.0583 -0.0016,-0.0984 0.002,-0.15234 -5.14e-4,-0.0645 0.0039,-0.36328 0.0039,-0.36328 l -0.002,0 c 0.901056,-3.3616 -10.666161,-6.44294 -12.181641,1.09375 z"
       style="fill:#a77660;fill-opacity:1" /></g><path
     style="fill:#669ec0;fill-opacity:1"
     d="m 440.85837,392.63066 -28.89794,-50.34557 18.76719,-32.21118 0.0659,-13.74506 33.15248,31.00136 z"
     id="polygon94"
     inkscape:connector-curvature="0"
     sodipodi:nodetypes="cccccc" /><path
     style="fill:#669ec0;fill-opacity:1"
     d="m 312.01332,392.63064 28.89793,-50.34555 -18.76718,-32.21118 -0.0659,-13.74506 -33.15248,31.00134 z"
     id="polygon94-2"
     inkscape:connector-curvature="0"
     sodipodi:nodetypes="cccccc" /><path
     inkscape:connector-curvature="0"
     style="fill:#614a41;fill-opacity:1"
     d="m 354.5879,151.83824 c 9.46695,2.68004 9.63107,1.39714 12.32082,1.70102 -0.0379,2.1112 -0.17336,5.03743 -3.89278,5.59572 -3.71947,0.55826 -47.78077,-6.37272 -53.8861,-2.72647 7.40765,-15.11007 35.99112,-7.2503 45.45806,-4.57027 z"
     id="path124-3-6-0"
     sodipodi:nodetypes="zczcz" /><path
     inkscape:connector-curvature="0"
     style="fill:#846558;fill-opacity:1"
     d="m 389.27537,278.35803 -14.41118,-0.19872 c 0.36082,8.80283 2.16148,5.34163 7.19183,10.32382 5.87816,-5.19111 7.21935,-2.15126 7.21935,-10.1251 z"
     id="path124-3-6-5-9"
     sodipodi:nodetypes="cccc" /><path
     inkscape:connector-curvature="0"
     style="fill:#614a41;fill-opacity:1"
     d="m 403.99429,149.37404 c -8.95921,4.05264 -10.91468,3.11586 -13.60443,3.36929 0.0379,1.76072 1.13607,4.55587 4.85548,5.02147 3.71948,0.4656 32.25021,-16.83672 52.9234,-2.62854 -3.70383,-6.30089 -11.41801,-14.5511 -20.67319,-14.20818 -9.25519,0.34293 -18.28644,6.08707 -23.50126,8.44596 z"
     id="path124-3-6-0-3"
     sodipodi:nodetypes="sczcss" /><path
     style="fill:#191d2a;fill-opacity:1;stroke:#191d2a;stroke-width:0.83825094;stroke-miterlimit:4;stroke-dasharray:none;stroke-opacity:1"
     inkscape:connector-curvature="0"
     d="m 425.49316,154.04268 c -13.0078,0.0848 -25.54288,4.04973 -38.31091,5.6352 -5.32887,0.66174 -10.82085,0.82407 -16.15867,0.20879 -7.09718,-0.81838 -13.96832,-2.99147 -21.06064,-3.96568 -6.33861,-0.8701 -12.756,-1.77914 -19.13415,-1.81529 -11.14627,-0.0646 -21.92618,3.33854 -32.85301,5.17605 0,3.11648 -0.64954,7.1172 0.98422,9.30811 1.68518,2.25938 4.52789,4.32569 5.26515,7.38777 1.74841,7.26183 4.23091,14.38005 7.4052,21.20432 1.5426,3.31626 4.4537,5.6284 7.70507,7.22108 7.82887,3.83536 17.09472,4.39919 25.68325,3.19333 12.23098,-1.71758 18.86647,-10.6663 23.92873,-20.89133 1.89489,-4.15632 2.10609,-8.95337 4.60163,-12.75197 1.48205,-2.25602 4.92399,-1.30637 7.38339,-1.31476 2.4601,-0.009 4.54518,3.98131 5.30825,6.6369 2.70159,9.39795 7.20621,19.3688 16.15902,24.29276 13.369,7.3537 34.43139,5.97816 43.10553,-7.28356 3.39482,-5.19053 4.33227,-11.48769 6.03516,-17.36395 1.03691,-3.5775 1.96369,-7.84274 5.65056,-9.80917 1.48788,-0.79399 0.4438,-3.96092 0.66329,-5.80212 0.23929,-2.00554 0.7011,-3.78024 -2.22584,-4.17374 -5.10492,-0.68762 -10.05675,-2.7778 -15.28143,-3.48538 -4.95116,-0.67069 -9.80187,-1.63991 -14.8538,-1.60736 z m -85.9964,3.33926 c 3.69274,-0.0211 7.3693,0.24089 10.95849,0.98102 21.38365,4.4104 21.81572,13.0017 13.01291,30.76314 -7.17318,14.47257 -22.03251,18.09881 -37.00532,14.62992 -6.90245,-1.59901 -11.62173,-6.29718 -13.84791,-12.73064 -2.34931,-6.79052 -4.12652,-14.0049 -3.72403,-21.14216 0.53905,-9.55696 11.62447,-10.90009 19.56208,-11.77077 3.6425,-0.39944 7.35141,-0.7076 11.04378,-0.73051 z m 78.07735,0 c 3.69273,0.0211 7.40164,0.33107 11.04416,0.73051 7.93724,0.87068 19.02365,2.21381 19.56207,11.77077 0.40219,7.13726 -1.3747,14.35164 -3.72438,21.14216 -2.2258,6.43346 -6.94544,11.13163 -13.84755,12.73064 -14.97216,3.46889 -29.83183,-0.15738 -37.00569,-14.62992 -8.8028,-17.76144 -8.37004,-26.35274 13.01365,-30.76314 3.58883,-0.74017 7.26539,-1.00357 10.95774,-0.98102 l 0,0 z"
     id="svg_7" /></svg>