<?xml version="1.0" encoding="UTF-8" standalone="no"?>
<!-- Generator: Adobe Illustrator 25.0.1, SVG Export Plug-In . SVG Version: 6.00 Build 0)  -->

<svg
   version="1.1"
   id="Layer_1"
   x="0px"
   y="0px"
   viewBox="0 0 300 200"
   xml:space="preserve"
   sodipodi:docname="logomin3.svg"
   width="300"
   height="200"
   inkscape:version="1.2.1 (9c6d41e, 2022-07-14)"
   inkscape:export-filename="logomin3.png"
   inkscape:export-xdpi="960"
   inkscape:export-ydpi="960"
   xmlns:inkscape="http://www.inkscape.org/namespaces/inkscape"
   xmlns:sodipodi="http://sodipodi.sourceforge.net/DTD/sodipodi-0.dtd"
   xmlns="http://www.w3.org/2000/svg"
   xmlns:svg="http://www.w3.org/2000/svg"><defs
   id="defs149" /><sodipodi:namedview
   id="namedview147"
   pagecolor="#ffffff"
   bordercolor="#000000"
   borderopacity="0.25"
   inkscape:showpageshadow="2"
   inkscape:pageopacity="0.0"
   inkscape:pagecheckerboard="0"
   inkscape:deskcolor="#d1d1d1"
   showgrid="false"
   inkscape:zoom="1.8154967"
   inkscape:cx="155.6048"
   inkscape:cy="144.58853"
   inkscape:window-width="2004"
   inkscape:window-height="1387"
   inkscape:window-x="0"
   inkscape:window-y="25"
   inkscape:window-maximized="0"
   inkscape:current-layer="Layer_1" />
<style
   type="text/css"
   id="style132">
	.st0{fill:#D9AE68;stroke:#000000;stroke-miterlimit:10;}
	.st1{fill:#231F20;}
	.st2{fill:#3E3734;}
	.st3{fill:#3D3E40;}
</style>
<rect
   class="st0"
   width="299"
   height="199"
   id="rect134"
   x="0.50045776"
   y="0.50045776"
   style="stroke-width:1;stroke-dasharray:none" />

<g
   id="g144"
   transform="translate(-16.779706,-0.05954929)">
	<path
   class="st1"
   d="m 71.6,53.9 c 2.9,0.1 28.1,-2.3 36.8,1.5 8.7,3.8 7.4,4.2 12.6,8.4 -0.8,-2.5 -0.1,-0.4 -1.8,-2.7 6,2.8 14.7,6.8 16.7,17.1 5.1,4.2 6.8,6.5 10.1,14.7 l -2,33.7 -4.6,-23.5 c 0,0 -5.7,-5 -6.9,-9.9 -4.9,0.4 -18.1,-5.1 -22.1,-2.9 -4,2.2 -6.2,3.9 -12,1.4 -5.8,-2.5 -7.1,-1.9 -13.5,1.3 -4.5,1.2 -15.3,6.7 -15.3,6.7 L 63.5,126.2 61.9,91.8 54,83.4 c 0,0 1.1,-2.8 5.4,-5.6 4.3,-2.8 7,-3.4 7,-3.4 -4.5,-2.4 -5,-3.8 -9.3,-5.9 7.1,-7.9 14.6,-9 18.2,-8.8 -2.6,-1.3 -2.8,-3.1 -3.7,-5.8 z"
   id="path136" />
	<path
   class="st2"
   d="m 91,117.4 c 4.9,1.4 5,0.7 6.4,0.9 0,1.1 -0.1,2.6 -2,2.9 -1.9,0.3 -24.9,-3.3 -28.1,-1.4 3.8,-7.9 18.8,-3.8 23.7,-2.4 z"
   id="path138" />
	<path
   class="st2"
   d="m 116.8,116.1 c -4.7,2.1 -5.7,1.6 -7.1,1.8 0,0.9 0.6,2.4 2.5,2.6 1.9,0.2 16.8,-8.8 27.6,-1.4 -1.9,-3.3 -6,-7.6 -10.8,-7.4 -4.8,0.2 -9.5,3.2 -12.2,4.4 z"
   id="path140" />
	<path
   class="st3"
   d="m 128,118.5 c -6.8,0 -13.3,2.1 -20,2.9 -2.8,0.3 -5.6,0.4 -8.4,0.1 -3.7,-0.4 -7.3,-1.6 -11,-2.1 -3.3,-0.5 -6.7,-0.9 -10,-0.9 -5.8,0 -11.4,1.7 -17.1,2.7 0,1.6 -0.3,3.7 0.5,4.9 0.9,1.2 2.4,2.3 2.7,3.9 0.9,3.8 2.2,7.5 3.9,11.1 0.8,1.7 2.3,2.9 4,3.8 4.1,2 8.9,2.3 13.4,1.7 6.4,-0.9 9.8,-5.6 12.5,-10.9 1,-2.2 1.1,-4.7 2.4,-6.7 0.8,-1.2 2.6,-0.7 3.9,-0.7 1.3,0 2.4,2.1 2.8,3.5 1.4,4.9 3.8,10.1 8.4,12.7 7,3.8 18,3.1 22.5,-3.8 1.8,-2.7 2.3,-6 3.1,-9.1 0.5,-1.9 1,-4.1 2.9,-5.1 0.8,-0.4 0.2,-2.1 0.3,-3 0.1,-1 0.4,-2 -1.2,-2.2 -2.7,-0.4 -5.2,-1.4 -8,-1.8 -2.5,-0.5 -5,-1 -7.6,-1 z m -44.9,1.8 c 1.9,0 3.8,0.1 5.7,0.5 11.2,2.3 11.4,6.8 6.8,16 -3.7,7.5 -11.5,9.4 -19.3,7.6 -3.6,-0.8 -6.1,-3.3 -7.2,-6.6 -1.2,-3.5 -2.2,-7.3 -1.9,-11 0.3,-5 6.1,-5.7 10.2,-6.1 1.9,-0.2 3.8,-0.4 5.7,-0.4 z m 40.7,0 c 1.9,0 3.9,0.2 5.8,0.4 4.1,0.5 9.9,1.2 10.2,6.1 0.2,3.7 -0.7,7.5 -1.9,11 -1.2,3.4 -3.6,5.8 -7.2,6.6 -7.8,1.8 -15.6,-0.1 -19.3,-7.6 -4.6,-9.3 -4.4,-13.7 6.8,-16 1.8,-0.4 3.7,-0.5 5.6,-0.5 z"
   id="path142" />
</g><text
   class="st13 st14"
   id="text1155"
   style="font-size:18px;font-family:Roboto-Thin;stroke-width:0.29999;enable-background:new"
   x="155.2719"
   y="97.092743"><tspan
     sodipodi:role="line"
     id="tspan2045"
     x="155.2719"
     y="97.092743"
     style="font-style:normal;font-variant:normal;font-weight:300;font-stretch:normal;font-size:18px;font-family:Roboto;-inkscape-font-specification:'Roboto Light';stroke-width:0.29999">Estamos</tspan></text><text
   class="st13 st14"
   id="text1155-4"
   style="font-size:18px;font-family:Roboto-Thin;stroke-width:0.29999;enable-background:new"
   x="156.05412"
   y="115.52834"><tspan
     sodipodi:role="line"
     id="tspan2045-1"
     x="156.05412"
     y="115.52834"
     style="font-style:normal;font-variant:normal;font-weight:normal;font-stretch:normal;font-size:18px;font-family:Roboto;-inkscape-font-specification:Roboto">descansando</tspan></text></svg>
